<svg width="345" height="206" viewBox="0 0 345 206" fill="none" xmlns="http://www.w3.org/2000/svg">
<g clip-path="url(#clip0)">
<path opacity="0.1" d="M340.245 191.125C338.912 194.742 337.271 198.21 335.344 201.487C334.44 203.049 333.448 204.548 332.375 205.975C332.365 205.989 332.354 206.002 332.341 206.014H0.387695L0.432499 205.975C0.731194 205.718 2.48453 204.159 5.21161 201.487C7.16806 199.572 9.62331 197.084 12.3803 194.09C34.9287 169.714 78.2425 112.017 42.1691 59.162C8.63469 10.0265 44.7408 1.1101 68.5587 0.0694111C77.7098 -0.324606 86.8392 1.31569 95.3996 4.89202C106.403 9.48812 126.514 16.5332 152.716 19.7637C153.576 19.8687 154.443 19.9738 155.32 20.0689C169.192 21.6213 183.158 21.9003 197.072 20.9028C197.481 20.8766 197.893 20.8437 198.309 20.8109C212.073 19.7486 225.733 17.4261 239.146 13.8675C240.016 13.6344 240.872 13.4145 241.727 13.1945C286.42 1.82906 327.622 40.5642 317.321 84.3387C313.512 100.53 314.48 117.789 327.177 131.751C347.966 154.541 345.449 176.986 340.245 191.125Z" fill="#014FE7"/>
<path d="M340.244 191.126C338.911 194.741 337.27 198.21 335.343 201.486C334.439 203.048 333.447 204.547 332.374 205.974H0.431396C0.730091 205.718 2.48342 204.158 5.21051 201.486C7.16695 199.572 9.62224 197.083 12.3791 194.09L47.3652 186.145C47.8173 186.043 48.2777 185.991 48.7392 185.991L86.0373 185.931H86.076L104.551 185.906H104.592L120.184 185.885H130.39H140.844L183.683 185.82H183.752H187.071H192.901H200.18H202.116L209.473 185.728H211.904L233.303 185.696H240.136H243.422L268.14 185.659H275.499L298.911 185.623L318.673 185.597C319.222 185.597 319.771 185.669 320.306 185.81L340.244 191.126Z" fill="#454B69"/>
<path opacity="0.4" d="M5.21051 201.486H335.343C334.439 203.048 333.447 204.547 332.374 205.974H0.431396C0.724117 205.701 2.47745 204.142 5.21051 201.486Z" fill="black"/>
<path d="M219.396 99.3873L218.733 99.5286L188.756 105.858C180.049 107.696 171.217 109.544 162.372 108.839C155.965 108.326 149.979 106.239 143.824 104.407C140.344 103.369 136.654 102.956 135.475 98.6748C133.847 92.7655 136.496 84.0165 137.12 78.0284C137.718 72.152 138.07 66.1278 137.007 60.3203C136.771 59.0153 136.46 57.728 136.075 56.4662C135.009 52.9896 133.333 49.3751 134.238 45.846C134.952 43.0456 137.13 41.0463 139.167 39.1948C143.157 35.5836 147.231 31.5357 148.815 26.1221C149.591 23.4958 149.737 20.6693 150.573 18.0626C152.16 13.1054 156.145 9.39894 160.577 7.43578C165.01 5.47259 169.884 5.05566 174.666 5.05566C178.889 5.05592 183.106 5.36409 187.292 5.97816C191.856 6.63475 196.462 7.71483 200.474 10.2033C204.485 12.6917 207.866 16.7691 208.801 21.7394C210.124 28.7682 206.45 36.2532 208.422 43.0785C209.413 46.5288 211.708 49.316 213.299 52.4742C214.597 55.116 215.399 58.0178 215.656 61.007C215.912 63.9963 215.619 67.0116 214.793 69.8736C212.888 76.364 208.221 82.9299 210.611 89.2235C212.132 93.2252 216.015 95.3626 218.721 98.5335C218.962 98.8178 219.187 99.103 219.396 99.3873Z" fill="#454B69"/>
<path opacity="0.1" d="M218.733 98.5599V99.5286L188.757 105.858C180.05 107.696 171.217 109.544 162.373 108.839C155.966 108.326 149.98 106.239 143.824 104.407C140.344 103.369 136.656 102.956 135.476 98.6748C133.848 92.7655 136.497 84.0165 137.121 78.0284C137.719 72.152 146.916 50.6981 145.852 44.8906L200.812 47.517C201.182 50.7243 215.708 66.8238 214.803 69.8999C212.897 76.3902 208.231 82.9561 210.621 89.2491C212.145 93.2516 216.027 95.3882 218.733 98.5599Z" fill="black"/>
<path d="M162.579 82.3157C162.904 84.3479 163.078 86.5837 162.134 88.356C160.877 90.7335 158.134 91.4911 155.682 92.03L147.169 93.901C146.59 94.0295 145.974 94.1734 145.541 94.6101C145.031 95.1123 144.857 95.9074 144.783 96.6556C144.439 100.044 145.529 103.382 146.524 106.609C148.534 113.146 150.222 119.82 152.764 126.126C155.305 132.433 158.795 138.454 163.774 142.669C168.753 146.884 175.342 149.129 181.439 147.481C186.749 146.047 191.105 141.927 194.859 137.558C197.956 133.946 200.854 130.006 202.356 125.322C203.392 122.105 203.73 118.677 204.056 115.282C204.559 110.078 205.063 104.873 205.567 99.669C205.803 97.2268 205.958 94.479 204.516 92.6046C203.882 91.7806 203.022 91.2324 202.144 90.7233C198.876 88.8157 195.435 87.2401 192.395 84.942C189.354 82.644 186.657 79.4793 185.733 75.553C185.181 73.1958 185.28 70.6285 184.338 68.4323C183.287 65.97 181.053 64.3024 178.663 63.5703C176.274 62.8382 173.753 62.9366 171.292 63.242C168.831 63.5473 159.344 64.3286 158.326 67.3784C157.779 69.0199 160.046 72.5425 160.584 74.1577C161.468 76.8062 162.137 79.5365 162.579 82.3157Z" fill="#EFB7B9"/>
<path opacity="0.1" d="M162.579 82.3157C162.904 84.3479 163.078 86.5837 162.134 88.356C160.877 90.7335 158.134 91.4911 155.682 92.03L147.169 93.901C146.59 94.0295 145.974 94.1734 145.541 94.6101C145.031 95.1123 144.857 95.9074 144.783 96.6556C144.439 100.044 145.529 103.382 146.524 106.609C148.534 113.146 150.222 119.82 152.764 126.126C155.305 132.433 158.795 138.454 163.774 142.669C168.753 146.884 175.342 149.129 181.439 147.481C186.749 146.047 191.105 141.927 194.859 137.558C197.956 133.946 200.854 130.006 202.356 125.322C203.392 122.105 203.73 118.677 204.056 115.282C204.559 110.078 205.063 104.873 205.567 99.669C205.803 97.2268 205.958 94.479 204.516 92.6046C203.882 91.7806 203.022 91.2324 202.144 90.7233C198.876 88.8157 195.435 87.2401 192.395 84.942C189.354 82.644 186.657 79.4793 185.733 75.553C185.181 73.1958 185.28 70.6285 184.338 68.4323C183.287 65.97 181.053 64.3024 178.663 63.5703C176.274 62.8382 173.753 62.9366 171.292 63.242C168.831 63.5473 159.344 64.3286 158.326 67.3784C157.779 69.0199 160.046 72.5425 160.584 74.1577C161.468 76.8062 162.137 79.5365 162.579 82.3157Z" fill="black"/>
<path d="M183.067 118.014L188.058 106.4C190.397 100.956 192.786 95.2376 192.538 89.2269C192.49 88.0318 192.479 86.5379 193.435 85.9965C193.849 85.8101 194.302 85.7462 194.746 85.8126C200 86.108 205.186 87.2606 210.131 89.2329C211.09 89.6143 212.073 90.0535 212.745 90.8945C213.417 91.7347 213.689 92.8643 213.919 93.9471C214.702 97.6108 215.274 101.324 215.63 105.067C216.527 114.331 216.082 123.677 215.63 132.971L214.304 161.346C214.311 161.748 214.237 162.148 214.086 162.514C213.758 163.171 213.016 163.391 212.35 163.515C209.785 163.998 207.162 163.9 204.564 163.791C186.283 163.03 167.908 161.862 149.748 164.297C149.829 161.345 149.786 158.39 149.619 155.433C148.899 142.666 145.888 130.211 142.931 117.841C141.207 110.618 139.538 102.74 142.313 95.9339C142.721 94.8587 143.307 93.8773 144.042 93.0379C145.222 91.7679 146.832 91.098 148.427 90.6187C151.178 89.7956 154.028 89.4415 156.877 89.5683L175.71 134.633C176.57 136.695 177.278 138.864 178.135 140.9C178.906 137.384 177.98 133.264 178.906 129.452C179.903 125.497 181.474 121.711 183.067 118.014Z" fill="white"/>
<path d="M181.098 149.021C184.467 149.255 187.741 147.357 190.059 144.675C192.377 141.993 193.906 138.592 195.199 135.155C197.059 130.255 198.537 125.191 199.617 120.017C200.513 115.618 201.149 111.065 200.531 106.606C199.677 100.451 196.508 94.857 195.967 88.6583C195.874 87.5755 195.934 86.308 196.725 85.6543C197.215 85.2508 197.861 85.1955 198.47 85.1555C204.103 84.788 210.292 84.8569 214.656 88.7868C215.985 89.9811 217.064 91.4751 218.363 92.7059C221.457 95.6606 225.831 97.1647 227.817 101.087C228.509 102.453 228.841 103.999 229.325 105.47C230.466 108.95 232.441 112.01 234.403 115.02C232.5 123.845 230.314 132.676 228.411 141.501C227.297 146.678 226.174 151.875 224.424 156.832C223.276 160.082 221.834 163.397 222.186 166.877C222.327 168.247 222.742 169.556 223.103 170.876C224.37 175.508 224.964 180.331 224.863 185.167L139.633 185.397C143.717 178.962 144.914 171.069 144.499 163.24C144.299 159.487 143.528 155.712 141.811 152.466C139.105 147.377 134.344 144.061 129.651 141.222C126.366 139.252 122.838 150.335 119.286 149.064C119.859 144.606 120.122 127.397 119.883 122.91C119.806 121.439 119.686 119.929 120.099 118.523C120.38 117.561 120.896 116.702 121.246 115.766C122.647 112.02 121.312 107.23 123.576 104.042C125.14 101.826 127.885 101.196 130.117 99.83C132.407 98.4254 134.179 96.219 136.174 94.3344C140.089 90.6809 144.873 88.3331 149.962 87.5687C151.446 90.142 152.349 93.0686 152.593 96.1041C152.746 98.0117 152.635 99.9449 152.877 101.843C153.209 104.413 154.177 106.826 155.136 109.203C159.129 119.114 163.138 129.055 168.197 138.362C169.628 140.988 171.184 143.614 173.257 145.66C175.33 147.705 178.315 149.166 181.098 149.021Z" fill="#138799"/>
<path opacity="0.1" d="M181.098 149.021C184.467 149.255 187.741 147.357 190.059 144.675C192.377 141.993 193.906 138.592 195.199 135.155C197.059 130.255 198.537 125.191 199.617 120.017C200.513 115.618 201.149 111.065 200.531 106.606C199.677 100.451 196.508 94.857 195.967 88.6583C195.874 87.5755 195.934 86.308 196.725 85.6543C197.215 85.2508 197.861 85.1955 198.47 85.1555C204.103 84.788 210.292 84.8569 214.656 88.7868C215.985 89.9811 217.064 91.4751 218.363 92.7059C221.457 95.6606 225.831 97.1647 227.817 101.087C228.509 102.453 228.841 103.999 229.325 105.47C230.466 108.95 232.441 112.01 234.403 115.02C232.5 123.845 230.314 132.676 228.411 141.501C227.297 146.678 226.174 151.875 224.424 156.832C223.276 160.082 221.834 163.397 222.186 166.877C222.327 168.247 222.742 169.556 223.103 170.876C224.37 175.508 224.964 180.331 224.863 185.167L139.633 185.397C143.717 178.962 144.914 171.069 144.499 163.24C144.299 159.487 143.528 155.712 141.811 152.466C139.105 147.377 134.344 144.061 129.651 141.222C126.366 139.252 122.838 150.335 119.286 149.064C119.859 144.606 120.122 127.397 119.883 122.91C119.806 121.439 119.686 119.929 120.099 118.523C120.38 117.561 120.896 116.702 121.246 115.766C122.647 112.02 121.312 107.23 123.576 104.042C125.14 101.826 127.885 101.196 130.117 99.83C132.407 98.4254 134.179 96.219 136.174 94.3344C140.089 90.6809 144.873 88.3331 149.962 87.5687C151.446 90.142 152.349 93.0686 152.593 96.1041C152.746 98.0117 152.635 99.9449 152.877 101.843C153.209 104.413 154.177 106.826 155.136 109.203C159.129 119.114 163.138 129.055 168.197 138.362C169.628 140.988 171.184 143.614 173.257 145.66C175.33 147.705 178.315 149.166 181.098 149.021Z" fill="black"/>
<path d="M176.59 81.5708C190.731 81.5708 202.194 68.9716 202.194 53.4296C202.194 37.8877 190.731 25.2885 176.59 25.2885C162.45 25.2885 150.987 37.8877 150.987 53.4296C150.987 68.9716 162.45 81.5708 176.59 81.5708Z" fill="#EFB7B9"/>
<path d="M163.156 90.9302C163.857 83.6489 161.103 76.525 157.985 70.0543C156.491 66.9618 154.891 63.8791 154.141 60.4813C153.391 57.0835 153.606 53.2359 155.523 50.4421C157.155 48.0653 159.742 46.7816 162.134 45.3865C168.887 41.4469 175.061 35.6559 178.03 27.9114C176.351 28.916 176.788 31.9133 178.27 33.2364C179.751 34.5594 181.77 34.8154 183.592 35.4458C190.235 37.7438 194.219 45.0253 197.416 51.8275C197.938 52.9371 198.47 54.1092 198.464 55.3599C198.458 56.6107 197.938 57.7204 197.395 58.784C195.817 61.8699 193.888 64.8345 193.171 68.2848C192.35 72.2243 193.216 76.3673 194.342 80.2314C195.537 84.3416 197.122 88.4846 199.991 91.4325C202.858 94.3803 207.306 95.8453 210.833 93.9411C207.311 87.2861 203.664 79.8505 205.038 72.3064C205.701 68.6952 207.485 65.4122 208.243 61.8207C209.689 54.9693 207.282 47.9209 204.919 41.3813L197.858 21.8643C196.779 18.8801 195.551 15.6957 193.079 14.005C191.405 12.8658 189.381 12.5703 187.422 12.3636C181.113 11.7463 174.577 11.9499 168.705 14.5303C158.005 19.2281 151.297 30.8103 145.975 42.0444C144.38 45.4094 142.805 48.9845 142.871 52.7796C142.907 54.8609 143.436 56.8865 143.865 58.9154C145.616 67.1752 145.712 75.7337 145.801 84.2135C145.87 90.72 145.562 96.8532 142.972 102.779C146.521 103.553 151.667 105.645 155.18 104.114C159.759 102.125 162.579 95.996 163.156 90.9302Z" fill="#454B69"/>
<g opacity="0.1">
<path opacity="0.1" d="M145.787 84.0756C145.798 83.1498 145.798 82.2153 145.787 81.272C145.697 72.7922 145.602 64.2336 143.851 55.9738C143.46 54.3664 143.155 52.7353 142.937 51.0887C142.876 51.6541 142.849 52.2234 142.857 52.7926C142.892 54.874 143.421 56.8996 143.851 58.9284C145.593 67.139 145.7 75.6451 145.787 84.0756Z" fill="black"/>
<path opacity="0.1" d="M208.244 61.8206C208.636 59.9024 208.767 57.9309 208.632 55.9705C208.573 56.9456 208.444 57.9138 208.244 58.866C207.485 62.4772 205.702 65.7306 205.039 69.3517C204.753 70.9488 204.672 72.5821 204.8 74.2038C204.848 73.5669 204.928 72.9334 205.039 72.3063C205.702 68.6853 207.485 65.4187 208.244 61.8206Z" fill="black"/>
<path opacity="0.1" d="M198.232 53.853C198.378 53.3868 198.457 52.8982 198.465 52.4053C198.465 51.1545 197.94 49.9825 197.417 48.8728C194.221 42.0706 190.248 34.7957 183.593 32.491C181.771 31.8608 179.755 31.6046 178.27 30.2816C177.888 29.92 177.576 29.4782 177.351 28.9822C177.127 28.4861 176.994 27.9457 176.962 27.3927C173.724 33.9257 168.162 38.9223 162.135 42.4317C159.745 43.827 157.156 45.1106 155.525 47.4874C153.993 49.7199 153.548 52.6252 153.814 55.4354C153.964 53.6318 154.556 51.9066 155.525 50.4421C157.156 48.0652 159.742 46.7816 162.135 45.3864C168.162 41.877 173.724 36.8804 176.962 30.3474C176.994 30.9003 177.127 31.4407 177.351 31.9368C177.576 32.4329 177.888 32.8747 178.27 33.2363C179.764 34.5494 181.771 34.8153 183.593 35.4457C190.236 37.7438 194.221 45.0253 197.417 51.8275C197.74 52.4758 198.013 53.1534 198.232 53.853Z" fill="black"/>
<path opacity="0.1" d="M199.991 88.4778C197.124 85.5232 195.544 81.3868 194.343 77.2765C193.622 74.9677 193.142 72.5768 192.91 70.1493C192.631 73.5209 193.394 76.9712 194.343 80.2312C195.538 84.3414 197.124 88.4847 199.991 91.4325C202.859 94.3803 207.306 95.8445 210.834 93.9403C210.41 93.1426 209.989 92.3323 209.571 91.5142C206.294 92.5289 202.53 91.0843 199.991 88.4778Z" fill="black"/>
<path opacity="0.1" d="M163.156 87.9756C162.579 93.0413 159.76 99.1702 155.169 101.173C151.982 102.562 147.444 100.966 143.982 100.083C143.684 101.005 143.344 101.909 142.961 102.791C146.509 103.566 151.656 105.658 155.169 104.128C159.76 102.125 162.579 95.996 163.156 90.9303C163.275 89.6628 163.296 88.3867 163.221 87.1158C163.203 87.401 163.177 87.6904 163.156 87.9756Z" fill="black"/>
</g>
<path d="M199.349 169.372C194.733 168.568 190.05 167.015 185.474 168.059C182.821 168.663 180.396 170.114 178.192 171.868C179.405 172.934 180.821 173.886 181.591 175.371C182.069 176.397 182.429 177.485 182.66 178.61C183.144 180.58 183.631 182.589 183.706 184.638C183.78 186.686 183.407 188.82 182.295 190.472C188.115 191.102 193.753 189.526 199.429 187.987C200.078 187.862 200.695 187.588 201.242 187.182C202.138 186.408 202.401 185.029 202.407 183.772C202.407 181.526 201.834 179.336 201.251 177.182C200.558 174.599 200.044 171.939 199.349 169.372Z" fill="white"/>
<path d="M230.508 114C232.8 114.327 234.577 116.36 235.885 118.447C239.556 124.259 241.139 131.304 242.902 138.109C245.092 146.572 247.667 154.903 250.628 163.098C251.266 164.991 252.041 166.825 252.946 168.581C253.684 169.937 254.581 171.24 254.905 172.78C255.694 176.503 252.902 180.002 249.989 182.078C248.437 183.228 246.742 184.125 244.956 184.743C243.218 185.314 241.405 185.531 239.604 185.747L223.023 187.717C215.391 188.63 207.691 189.543 200.057 188.663C199.576 186.824 200.519 185.524 200.45 183.611C200.403 182.242 199.853 180.968 199.363 179.707C198.46 177.462 197.864 175.082 197.592 172.646C197.505 171.749 197.476 170.83 197.165 169.996C196.854 169.163 196.188 168.413 195.373 168.355C199.853 167.865 203.256 166.937 207.736 166.444C209.4 166.26 211.129 166.053 212.548 165.082C214.307 163.877 215.293 161.703 216.075 159.595C218.014 154.376 219.262 148.625 218.244 143.096C217.407 138.562 215.075 134.34 215.087 129.714C215.087 126.961 215.941 124.291 216.951 121.77C218.02 119.105 219.415 116.38 221.763 115.027C224.111 113.675 227.859 113.606 230.508 114Z" fill="#138799"/>
<path opacity="0.08" d="M230.508 114C232.8 114.327 234.577 116.36 235.885 118.447C239.556 124.259 241.139 131.304 242.902 138.109C245.092 146.572 247.667 154.903 250.628 163.098C251.266 164.991 252.041 166.825 252.946 168.581C253.684 169.937 254.581 171.24 254.905 172.78C255.694 176.503 252.902 180.002 249.989 182.078C248.437 183.228 246.742 184.125 244.956 184.743C243.218 185.314 241.405 185.531 239.604 185.747L223.023 187.717C215.391 188.63 207.691 189.543 200.057 188.663C199.576 186.824 200.519 185.524 200.45 183.611C200.403 182.242 199.853 180.968 199.363 179.707C198.46 177.462 197.864 175.082 197.592 172.646C197.505 171.749 197.476 170.83 197.165 169.996C196.854 169.163 196.188 168.413 195.373 168.355C199.853 167.865 203.256 166.937 207.736 166.444C209.4 166.26 211.129 166.053 212.548 165.082C214.307 163.877 215.293 161.703 216.075 159.595C218.014 154.376 219.262 148.625 218.244 143.096C217.407 138.562 215.075 134.34 215.087 129.714C215.087 126.961 215.941 124.291 216.951 121.77C218.02 119.105 219.415 116.38 221.763 115.027C224.111 113.675 227.859 113.606 230.508 114Z" fill="black"/>
<path d="M126.678 109.735C127.763 106.905 128.865 103.983 128.895 100.914C128.927 97.5947 127.7 94.4434 126.762 91.2913C125.602 87.4351 124.83 83.4514 124.459 79.4106C124.382 79.0235 124.435 78.6189 124.609 78.2715C124.857 77.8874 125.334 77.8086 125.755 77.7067C127.823 77.1881 129.384 75.3529 130.675 73.5047C132.677 70.6501 134.367 67.5474 135.711 64.26C136.699 61.8404 138.038 58.8891 140.451 58.8661C139.48 63.8822 138.275 68.8404 136.843 73.7213C139.367 73.0122 141.766 71.9814 144.29 71.2722C144.783 71.1008 145.301 71.0252 145.819 71.049C147.33 71.223 148.256 73.4718 147.378 74.8342C148.612 76.4232 150.663 76.85 152.276 77.9399C153.89 79.0298 155.048 81.7283 153.614 83.0974C153.334 83.3632 152.979 83.5504 152.775 83.8919C152.082 85.0671 153.779 86.4162 153.638 87.808C153.525 88.9478 152.195 89.479 151.189 89.1776C150.183 88.8754 149.397 88.048 148.501 87.4402C147.605 86.8333 146.434 86.4554 145.565 87.0861C145.332 90.1753 145.081 93.324 143.865 96.1374C143.42 97.1648 142.85 98.1267 142.491 99.1933C142.149 100.357 141.935 101.561 141.858 102.782L140.774 113.678C135.601 114.817 130.961 113.113 126.678 109.735Z" fill="#EFB7B9"/>
<path d="M125.415 119.501L124.462 112.414C124.37 111.837 124.32 111.253 124.309 110.667C124.309 109.026 124.967 107.46 125.603 105.966C130.874 108.671 136.574 109.633 142.39 109.636C143.157 109.636 144.032 109.558 144.51 108.897C145.499 110.149 145.529 112.161 145.108 113.749C144.687 115.339 143.877 116.77 143.34 118.32C143.067 119.105 142.846 119.961 142.327 120.565C141.521 121.52 140.212 121.685 139.023 121.678C137.772 121.669 136.525 121.538 135.296 121.287C132.111 120.638 128.599 118.875 125.415 119.501Z" fill="white"/>
<path d="M145.078 119.213C140.986 118.7 136.921 117.979 132.883 117.046C130.902 116.59 128.904 116.081 126.885 116.17C125.571 116.228 124.158 116.518 123.002 115.802C124.128 120.014 124.197 124.452 122.849 128.586C122.052 131.048 120.836 133.343 120.251 135.877C119.032 141.179 120.705 146.96 119.182 152.167C119.02 152.847 118.704 153.471 118.261 153.979C117.795 154.448 117.159 154.692 116.729 155.201C116.096 155.949 116.057 157.075 116.054 158.096L116.027 167.14C116.009 172.899 116.078 179.005 118.844 183.883C121.998 189.464 128.638 192.356 134.418 190.659C135.955 190.227 137.394 189.453 138.648 188.384C140.654 186.631 141.933 184.097 143.185 181.627C144.678 178.673 146.171 175.653 146.652 172.328C146.993 169.973 146.802 167.57 146.557 165.204C145.207 152.072 142.277 139.052 142.907 125.87C143.001 123.461 143.758 121.14 145.078 119.213Z" fill="#138799"/>
<path d="M162.182 173.709C160.106 173.84 158.016 173.972 155.948 173.709C154.455 173.512 152.997 173.108 151.515 172.832C147.469 172.115 143.33 172.367 139.381 173.573C135.432 174.779 131.768 176.91 128.639 179.818C127.491 180.895 126.333 182.547 126.966 184.053C127.647 185.675 129.729 185.629 131.333 185.328C129.601 186.236 128.072 187.55 126.853 189.178C126.404 189.779 125.98 190.491 126.067 191.269C126.249 192.894 128.257 193.19 129.741 193.048C129.257 193.62 129.583 194.631 130.198 195.018C130.813 195.406 131.578 195.327 132.274 195.186C133.812 194.876 135.299 194.311 136.683 193.508C136.401 194.312 136.888 195.255 137.579 195.656C138.269 196.056 139.108 196.026 139.881 195.888C143.532 195.232 146.578 192.441 150.139 191.345C155.832 189.595 161.788 192.385 167.705 192.583C169.557 192.645 171.457 192.438 173.144 191.598C175.214 190.564 176.884 188.624 179.071 187.934C181.499 187.172 184.286 188.049 186.508 186.732C188.124 185.777 186.666 178.414 186.254 176.996C185.498 174.402 184.739 172.682 182.222 172.419C175.85 171.732 168.601 173.302 162.182 173.709Z" fill="#EFB7B9"/>
<path d="M178.075 171.7C178.075 171.7 187.72 180.672 182.155 190.462L192.908 186.381V177.816C192.908 177.409 188.825 171.293 188.825 171.293L184.001 170.475L178.075 171.7Z" fill="white"/>
<path d="M77.089 171.145H80.7058C82.687 171.145 84.5859 172.01 85.9863 173.549C87.3866 175.088 88.1736 177.175 88.1736 179.353V191.536H69.6217V179.353C69.6217 178.274 69.8149 177.208 70.1901 176.212C70.5654 175.216 71.1154 174.311 71.8089 173.549C72.5022 172.787 73.3254 172.182 74.2314 171.77C75.1374 171.357 76.1084 171.145 77.089 171.145Z" fill="#3F3D56"/>
<path opacity="0.1" d="M77.089 171.145H80.7058C82.687 171.145 84.5859 172.01 85.9863 173.549C87.3866 175.088 88.1736 177.175 88.1736 179.353V191.536H69.6217V179.353C69.6217 178.274 69.8149 177.208 70.1901 176.212C70.5654 175.216 71.1154 174.311 71.8089 173.549C72.5022 172.787 73.3254 172.182 74.2314 171.77C75.1374 171.357 76.1084 171.145 77.089 171.145Z" fill="black"/>
<path d="M78.1556 175.63C78.9759 175.63 79.6404 174.899 79.6404 173.999C79.6404 173.097 78.9759 172.367 78.1556 172.367C77.336 172.367 76.6714 173.097 76.6714 173.999C76.6714 174.899 77.336 175.63 78.1556 175.63Z" fill="#3F3D56"/>
<path d="M78.1556 173.591C78.9759 173.591 79.6404 172.86 79.6404 171.959C79.6404 171.058 78.9759 170.328 78.1556 170.328C77.336 170.328 76.6714 171.058 76.6714 171.959C76.6714 172.86 77.336 173.591 78.1556 173.591Z" fill="#3F3D56"/>
<path d="M78.1556 171.552C78.9759 171.552 79.6404 170.822 79.6404 169.92C79.6404 169.02 78.9759 168.289 78.1556 168.289C77.336 168.289 76.6714 169.02 76.6714 169.92C76.6714 170.822 77.336 171.552 78.1556 171.552Z" fill="#3F3D56"/>
<path d="M78.1556 169.513C78.9759 169.513 79.6404 168.783 79.6404 167.882C79.6404 166.981 78.9759 166.25 78.1556 166.25C77.336 166.25 76.6714 166.981 76.6714 167.882C76.6714 168.783 77.336 169.513 78.1556 169.513Z" fill="#3F3D56"/>
<path d="M78.1556 167.475C78.9759 167.475 79.6404 166.744 79.6404 165.844C79.6404 164.942 78.9759 164.212 78.1556 164.212C77.336 164.212 76.6714 164.942 76.6714 165.844C76.6714 166.744 77.336 167.475 78.1556 167.475Z" fill="#3F3D56"/>
<path d="M78.1556 165.436C78.9759 165.436 79.6404 164.706 79.6404 163.805C79.6404 162.903 78.9759 162.173 78.1556 162.173C77.336 162.173 76.6714 162.903 76.6714 163.805C76.6714 164.706 77.336 165.436 78.1556 165.436Z" fill="#3F3D56"/>
<path d="M78.1556 163.395C78.9759 163.395 79.6404 162.663 79.6404 161.763C79.6404 160.861 78.9759 160.131 78.1556 160.131C77.336 160.131 76.6714 160.861 76.6714 161.763C76.6714 162.663 77.336 163.395 78.1556 163.395Z" fill="#3F3D56"/>
<path d="M80.3833 164.212C81.2036 164.212 81.8681 163.481 81.8681 162.58C81.8681 161.679 81.2036 160.948 80.3833 160.948C79.5637 160.948 78.8992 161.679 78.8992 162.58C78.8992 163.481 79.5637 164.212 80.3833 164.212Z" fill="#3F3D56"/>
<path d="M81.8674 163.395C82.6878 163.395 83.3523 162.663 83.3523 161.763C83.3523 160.861 82.6878 160.131 81.8674 160.131C81.0478 160.131 80.3833 160.861 80.3833 161.763C80.3833 162.663 81.0478 163.395 81.8674 163.395Z" fill="#3F3D56"/>
<path d="M83.3539 162.58C84.1735 162.58 84.838 161.85 84.838 160.948C84.838 160.048 84.1735 159.317 83.3539 159.317C82.5335 159.317 81.869 160.048 81.869 160.948C81.869 161.85 82.5335 162.58 83.3539 162.58Z" fill="#3F3D56"/>
<path d="M78.1556 161.355C78.9759 161.355 79.6404 160.625 79.6404 159.724C79.6404 158.823 78.9759 158.092 78.1556 158.092C77.336 158.092 76.6714 158.823 76.6714 159.724C76.6714 160.625 77.336 161.355 78.1556 161.355Z" fill="#3F3D56"/>
<path d="M78.1556 159.317C78.9759 159.317 79.6404 158.587 79.6404 157.685C79.6404 156.784 78.9759 156.053 78.1556 156.053C77.336 156.053 76.6714 156.784 76.6714 157.685C76.6714 158.587 77.336 159.317 78.1556 159.317Z" fill="#3F3D56"/>
<path d="M78.1556 157.279C78.9759 157.279 79.6404 156.548 79.6404 155.647C79.6404 154.745 78.9759 154.015 78.1556 154.015C77.336 154.015 76.6714 154.745 76.6714 155.647C76.6714 156.548 77.336 157.279 78.1556 157.279Z" fill="#3F3D56"/>
<path d="M78.1556 155.24C78.9759 155.24 79.6404 154.508 79.6404 153.608C79.6404 152.706 78.9759 151.976 78.1556 151.976C77.336 151.976 76.6714 152.706 76.6714 153.608C76.6714 154.508 77.336 155.24 78.1556 155.24Z" fill="#3F3D56"/>
<path d="M84.3215 148.346C83.9509 148.404 83.581 148.447 83.2104 148.473C83.5547 148.143 83.8741 147.783 84.1664 147.396C83.9602 146.711 83.6578 146.065 83.2701 145.483C82.9018 145.71 82.4955 145.851 82.0752 145.897C81.7077 145.955 81.3378 145.998 80.9672 146.028C81.4541 145.591 81.9077 144.935 82.3861 144.386C81.3153 143.319 79.9437 142.69 78.5007 142.602C77.0574 142.515 75.631 142.975 74.46 143.905C73.289 144.837 72.4446 146.182 72.0683 147.715C71.6921 149.249 71.8067 150.877 72.3931 152.329C72.9795 153.781 74.0019 154.967 75.2892 155.689C76.5765 156.411 78.0502 156.625 79.4637 156.294C80.8772 155.964 82.145 155.109 83.0538 153.874C83.9625 152.64 84.4572 151.099 84.4557 149.511C84.4557 149.111 84.4239 148.712 84.3603 148.319L84.3215 148.346Z" fill="#138799"/>
<path d="M89.2701 156.451C88.8917 156.707 88.4637 156.863 88.0217 156.907C87.6541 156.966 87.2835 157.012 86.9129 157.038C87.3068 156.65 87.6743 156.231 88.0124 155.785C87.1176 155.528 86.1677 155.647 85.3481 156.12C84.5293 156.592 83.8997 157.383 83.5833 158.339C83.267 159.294 83.2856 160.345 83.6368 161.285C83.9873 162.226 84.6449 162.989 85.4807 163.425C86.3158 163.861 87.2696 163.939 88.1543 163.644C89.0398 163.349 89.7927 162.701 90.2664 161.828C90.7402 160.955 90.9007 159.919 90.7162 158.923C90.5316 157.926 90.016 157.042 89.2701 156.441V156.451Z" fill="#138799"/>
<path d="M75.9297 164.212C76.7496 164.212 77.4142 163.481 77.4142 162.58C77.4142 161.679 76.7496 160.948 75.9297 160.948C75.1098 160.948 74.4452 161.679 74.4452 162.58C74.4452 163.481 75.1098 164.212 75.9297 164.212Z" fill="#3F3D56"/>
<path d="M74.4455 163.395C75.2654 163.395 75.9301 162.663 75.9301 161.763C75.9301 160.861 75.2654 160.131 74.4455 160.131C73.6257 160.131 72.9611 160.861 72.9611 161.763C72.9611 162.663 73.6257 163.395 74.4455 163.395Z" fill="#3F3D56"/>
<path d="M72.9614 162.58C73.7812 162.58 74.4458 161.85 74.4458 160.948C74.4458 160.048 73.7812 159.317 72.9614 159.317C72.1415 159.317 71.4768 160.048 71.4768 160.948C71.4768 161.85 72.1415 162.58 72.9614 162.58Z" fill="#3F3D56"/>
<path d="M67.0444 156.451C67.423 156.707 67.8503 156.863 68.293 156.907C68.6603 156.966 69.0307 157.012 69.4011 157.038C69.0067 156.651 68.6392 156.232 68.3019 155.785C69.1969 155.528 70.1468 155.647 70.9659 156.12C71.7849 156.592 72.4142 157.383 72.7308 158.339C73.0473 159.294 73.0283 160.345 72.6775 161.285C72.3267 162.226 71.6692 162.989 70.8338 163.425C69.9983 163.861 69.0449 163.939 68.1597 163.644C67.2747 163.349 66.5217 162.701 66.048 161.828C65.5742 160.955 65.4138 159.919 65.5981 158.923C65.7823 157.926 66.298 157.042 67.0444 156.441V156.451Z" fill="#138799"/>
<path d="M77.0889 172.353H80.7058C82.6862 172.353 84.5859 173.218 85.9863 174.757C87.3866 176.297 88.1736 178.384 88.1736 180.561V191.352C88.1736 191.72 88.0403 192.075 87.8022 192.336C87.565 192.597 87.2432 192.744 86.9067 192.744H70.8791C70.5432 192.744 70.221 192.597 69.9835 192.336C69.746 192.075 69.6125 191.72 69.6125 191.352V180.561C69.6125 179.482 69.806 178.414 70.1818 177.418C70.5577 176.421 71.1085 175.516 71.8029 174.754C72.4972 173.992 73.3215 173.387 74.2285 172.975C75.1355 172.563 76.1075 172.352 77.0889 172.353Z" fill="#3F3D56"/>
<g opacity="0.1">
<path opacity="0.1" d="M84.4231 148.792C84.2727 148.968 84.1129 149.135 83.9454 149.29C84.1152 149.29 84.2827 149.261 84.4533 149.242C84.4471 149.09 84.4378 148.94 84.4231 148.792Z" fill="black"/>
<path opacity="0.1" d="M81.7162 146.841C82.0891 146.816 82.4567 146.772 82.8273 146.714C83.1592 146.668 83.4841 146.57 83.7919 146.425C83.6407 146.097 83.467 145.782 83.2724 145.483C83.0863 145.607 82.8855 145.701 82.6746 145.762C82.3822 146.149 82.0612 146.51 81.7162 146.841Z" fill="black"/>
<path opacity="0.1" d="M72.5912 150.344C72.5889 149.1 72.8922 147.877 73.4689 146.807C74.0457 145.736 74.8746 144.855 75.8682 144.258C76.862 143.661 77.9835 143.37 79.1156 143.415C80.2469 143.46 81.3472 143.84 82.2986 144.514L82.3947 144.403C81.7729 143.795 81.0486 143.328 80.2624 143.03C79.4769 142.732 78.6449 142.607 77.8153 142.664C76.985 142.721 76.1735 142.957 75.427 143.36C74.6807 143.762 74.0142 144.323 73.466 145.011C72.9178 145.698 72.4988 146.498 72.233 147.364C71.9672 148.23 71.8601 149.145 71.9175 150.057C71.9751 150.968 72.1961 151.859 72.5681 152.676C72.94 153.493 73.4555 154.222 74.0847 154.819C73.1186 153.57 72.5892 151.984 72.5912 150.344Z" fill="black"/>
</g>
<g opacity="0.1">
<path opacity="0.1" d="M86.9137 157.853C87.2843 157.827 87.6542 157.784 88.0217 157.724C88.4645 157.679 88.8917 157.522 89.2701 157.265C89.6896 157.604 90.0393 158.037 90.2967 158.535C90.5542 159.033 90.7131 159.584 90.7635 160.154C90.7783 160.011 90.7852 159.868 90.7845 159.724C90.7876 159.086 90.6534 158.457 90.3944 157.887C90.1347 157.317 89.7571 156.821 89.2911 156.441C88.9127 156.697 88.4854 156.853 88.0427 156.897L87.7441 156.94C87.489 157.267 87.2114 157.573 86.9137 157.853Z" fill="black"/>
<path opacity="0.1" d="M87.0625 156.46C87.1866 156.462 87.3106 156.472 87.4331 156.49C87.6277 156.264 87.8185 156.021 88.0123 155.785C87.4634 155.624 86.888 155.603 86.3305 155.726C85.773 155.848 85.2489 156.11 84.7984 156.491C84.3479 156.872 83.9834 157.361 83.733 157.922C83.4817 158.483 83.3523 159.099 83.353 159.724C83.353 159.862 83.353 159.997 83.3709 160.131C83.4631 159.125 83.8911 158.193 84.5735 157.514C85.2558 156.836 86.1429 156.46 87.0625 156.46Z" fill="black"/>
</g>
<g opacity="0.1">
<path opacity="0.1" d="M69.4008 157.853C69.0304 157.827 68.66 157.784 68.2926 157.724C67.8498 157.679 67.4224 157.522 67.044 157.265C66.6247 157.604 66.275 158.037 66.0177 158.535C65.7604 159.033 65.6013 159.584 65.5506 160.154C65.5361 160.011 65.5292 159.868 65.5297 159.724C65.5268 159.086 65.6606 158.457 65.92 157.887C66.1795 157.317 66.5573 156.821 67.0232 156.441C67.4017 156.697 67.8291 156.853 68.2717 156.897L68.5704 156.94C68.8237 157.269 69.1014 157.575 69.4008 157.853Z" fill="black"/>
<path opacity="0.1" d="M69.2509 156.46C69.126 156.462 69.0014 156.472 68.8775 156.49C68.6864 156.264 68.4952 156.021 68.301 155.785C68.8502 155.624 69.4257 155.603 69.9831 155.726C70.5404 155.848 71.0646 156.11 71.5151 156.491C71.9657 156.872 72.3303 157.361 72.581 157.922C72.8317 158.483 72.9616 159.099 72.9607 159.724C72.9607 159.862 72.9607 159.997 72.9428 160.131C72.8509 159.125 72.4223 158.193 71.7401 157.514C71.0579 156.836 70.1708 156.46 69.2509 156.46Z" fill="black"/>
</g>
<path d="M59.1857 196.69H30.0033C29.6745 196.69 29.3592 196.546 29.1267 196.291C28.8942 196.035 28.7637 195.689 28.7637 195.327V180.147C28.7636 179.917 28.8165 179.691 28.9174 179.49C29.0183 179.288 29.1639 179.118 29.3407 178.995C29.5175 178.873 29.7197 178.8 29.9285 178.787C30.1374 178.773 30.3459 178.817 30.5349 178.916C38.9193 183.289 47.9518 184.789 58.6122 178.985C58.8012 178.882 59.0108 178.834 59.2212 178.845C59.4317 178.857 59.6361 178.926 59.8153 179.048C59.9945 179.17 60.1426 179.34 60.2457 179.542C60.3487 179.744 60.4033 179.972 60.4044 180.203V195.304C60.4072 195.483 60.3778 195.661 60.3181 195.828C60.2583 195.994 60.1693 196.146 60.0562 196.275C59.943 196.403 59.8079 196.506 59.6585 196.577C59.5091 196.648 59.3485 196.687 59.1857 196.69Z" fill="#138799"/>
<path opacity="0.1" d="M59.1857 196.69H30.0033C29.6745 196.69 29.3592 196.546 29.1267 196.291C28.8942 196.035 28.7637 195.689 28.7637 195.327V180.147C28.7636 179.917 28.8165 179.691 28.9174 179.49C29.0183 179.288 29.1639 179.118 29.3407 178.995C29.5175 178.873 29.7197 178.8 29.9285 178.787C30.1374 178.773 30.3459 178.817 30.5349 178.916C38.9193 183.289 47.9518 184.789 58.6122 178.985C58.8012 178.882 59.0108 178.834 59.2212 178.845C59.4317 178.857 59.6361 178.926 59.8153 179.048C59.9945 179.17 60.1426 179.34 60.2457 179.542C60.3487 179.744 60.4033 179.972 60.4044 180.203V195.304C60.4072 195.483 60.3778 195.661 60.3181 195.828C60.2583 195.994 60.1693 196.146 60.0562 196.275C59.943 196.403 59.8079 196.506 59.6585 196.577C59.5091 196.648 59.3485 196.687 59.1857 196.69Z" fill="black"/>
<path d="M44.3912 185.15C45.3447 185.15 46.1177 184.037 46.1177 182.665C46.1177 181.293 45.3447 180.179 44.3912 180.179C43.4377 180.179 42.6647 181.293 42.6647 182.665C42.6647 184.037 43.4377 185.15 44.3912 185.15Z" fill="#3F3D56"/>
<path d="M44.3912 182.113C45.3447 182.113 46.1177 181.001 46.1177 179.629C46.1177 178.256 45.3447 177.143 44.3912 177.143C43.4377 177.143 42.6647 178.256 42.6647 179.629C42.6647 181.001 43.4377 182.113 44.3912 182.113Z" fill="#3F3D56"/>
<path d="M44.3912 179.074C45.3447 179.074 46.1177 177.961 46.1177 176.588C46.1177 175.216 45.3447 174.103 44.3912 174.103C43.4377 174.103 42.6647 175.216 42.6647 176.588C42.6647 177.961 43.4377 179.074 44.3912 179.074Z" fill="#3F3D56"/>
<path d="M44.3912 176.036C45.3447 176.036 46.1177 174.924 46.1177 173.552C46.1177 172.179 45.3447 171.066 44.3912 171.066C43.4377 171.066 42.6647 172.179 42.6647 173.552C42.6647 174.924 43.4377 176.036 44.3912 176.036Z" fill="#3F3D56"/>
<path d="M44.3912 172.997C45.3447 172.997 46.1177 171.884 46.1177 170.512C46.1177 169.139 45.3447 168.026 44.3912 168.026C43.4377 168.026 42.6647 169.139 42.6647 170.512C42.6647 171.884 43.4377 172.997 44.3912 172.997Z" fill="#3F3D56"/>
<path d="M44.3912 169.957C45.3447 169.957 46.1177 168.844 46.1177 167.472C46.1177 166.099 45.3447 164.986 44.3912 164.986C43.4377 164.986 42.6647 166.099 42.6647 167.472C42.6647 168.844 43.4377 169.957 44.3912 169.957Z" fill="#3F3D56"/>
<path d="M44.3912 166.92C45.3447 166.92 46.1177 165.808 46.1177 164.435C46.1177 163.063 45.3447 161.95 44.3912 161.95C43.4377 161.95 42.6647 163.063 42.6647 164.435C42.6647 165.808 43.4377 166.92 44.3912 166.92Z" fill="#3F3D56"/>
<path d="M50.8664 143.641C51.1008 143.31 51.3153 142.962 51.5086 142.601L46.9684 141.779L51.8789 141.819C52.3527 140.69 52.6112 139.468 52.6384 138.226C52.6656 136.983 52.4611 135.748 52.0372 134.596L45.4511 138.352L51.5265 133.428C50.9576 132.347 50.1922 131.406 49.278 130.664C48.3638 129.921 47.3204 129.394 46.2128 129.115C45.1052 128.836 43.957 128.81 42.8399 129.039C41.7228 129.269 40.6608 129.749 39.7198 130.449C38.7789 131.15 37.9793 132.056 37.3708 133.111C36.7623 134.166 36.358 135.347 36.1831 136.581C36.0082 137.816 36.0664 139.076 36.3541 140.284C36.6417 141.492 37.1527 142.623 37.8552 143.605C37.4861 144.117 37.1696 144.673 36.9113 145.262L42.8016 148.664L36.529 146.333C36.0894 147.766 35.9812 149.296 36.2143 150.786C36.4474 152.277 37.0144 153.679 37.8642 154.869C36.9039 156.21 36.3065 157.822 36.1405 159.52C35.9743 161.217 36.2461 162.932 36.9247 164.467C37.6033 166.003 38.6614 167.298 39.9779 168.203C41.2946 169.109 42.8165 169.589 44.3698 169.589C45.923 169.589 47.445 169.109 48.7615 168.203C50.0781 167.298 51.1362 166.003 51.8148 164.467C52.4935 162.932 52.7653 161.217 52.5991 159.52C52.4329 157.822 51.8356 156.21 50.8753 154.869C52.0226 153.265 52.6463 151.285 52.6463 149.244C52.6463 147.205 52.0226 145.225 50.8753 143.621L50.8664 143.641Z" fill="#138799"/>
<path opacity="0.1" d="M36.0784 149.265C36.0757 151.304 36.6998 153.286 37.8496 154.888C36.8894 156.23 36.292 157.842 36.1258 159.539C35.9597 161.237 36.2315 162.951 36.9101 164.487C37.5888 166.022 38.6469 167.317 39.9634 168.223C41.28 169.129 42.802 169.609 44.3552 169.609C45.9085 169.609 47.4304 169.129 48.747 168.223C50.0636 167.317 51.1217 166.022 51.8003 164.487C52.4789 162.951 52.7507 161.237 52.5845 159.539C52.4184 157.842 51.8211 156.23 50.8608 154.888C51.9689 153.342 36.0784 148.243 36.0784 149.265Z" fill="black"/>
<path d="M59.1857 197.494H30.0033C29.6745 197.494 29.3592 197.351 29.1267 197.095C28.8942 196.84 28.7637 196.492 28.7637 196.132V180.147C28.7636 179.917 28.8165 179.691 28.9174 179.49C29.0183 179.288 29.1639 179.118 29.3407 178.995C29.5175 178.873 29.7197 178.8 29.9285 178.787C30.1374 178.773 30.3459 178.817 30.5349 178.916C38.9193 183.289 45.5682 188.387 58.6122 178.985C59.3858 178.427 60.4044 179.188 60.4044 180.203V196.125C60.406 196.483 60.279 196.828 60.0508 197.084C59.8227 197.341 59.5118 197.488 59.1857 197.494Z" fill="#138799"/>
<path d="M275.733 192.973L232.68 199.234L230.526 199.546L209.477 187.189V184.297L275.256 176.411L275.733 192.973Z" fill="#9C9CA1"/>
<path d="M221.676 188.502L268.317 182.458L267.839 191.923L231.509 194.851L221.676 188.502Z" fill="#939498"/>
<path opacity="0.4" d="M232.68 196.125V199.231L230.526 199.559L209.474 187.189V184.297L229.567 196.115C229.567 196.115 232.202 196.388 232.68 196.125Z" fill="black"/>
<path d="M240.944 146.832L231.279 196.092C231.182 196.585 231.193 197.097 231.314 197.584C231.434 198.071 231.659 198.519 231.97 198.89C232.282 199.262 232.67 199.545 233.101 199.717C233.533 199.889 233.995 199.943 234.451 199.877L295.603 190.981C296.135 190.903 296.638 190.663 297.052 190.287C297.466 189.911 297.775 189.414 297.944 188.853L311.138 145.124C311.283 144.639 311.32 144.123 311.244 143.619C311.167 143.115 310.98 142.639 310.7 142.232C310.418 141.824 310.051 141.499 309.63 141.282C309.209 141.066 308.747 140.964 308.283 140.988L243.609 144.363C242.98 144.396 242.378 144.655 241.897 145.101C241.415 145.548 241.08 146.156 240.944 146.832Z" fill="#3F3D56"/>
<path d="M274.547 165.005C274.696 163.436 274.075 162.079 273.158 161.973C272.241 161.867 271.375 163.052 271.226 164.621C271.075 166.19 271.697 167.548 272.615 167.653C273.532 167.76 274.396 166.574 274.547 165.005Z" fill="white"/>
</g>
<defs>
<clipPath id="clip0">
<rect width="344.274" height="206" fill="white"/>
</clipPath>
</defs>
</svg>
