<svg width="344" height="231" viewBox="0 0 344 231" fill="none" xmlns="http://www.w3.org/2000/svg">
<g clip-path="url(#clip0)">
<path opacity="0.1" d="M231.637 230.859C255.139 230.859 274.192 229.518 274.192 227.863C274.192 226.209 255.139 224.867 231.637 224.867C208.134 224.867 189.082 226.209 189.082 227.863C189.082 229.518 208.134 230.859 231.637 230.859Z" fill="#E2E9F7"/>
<path opacity="0.1" d="M343.673 136.045C343.666 147.662 341.138 159.139 336.263 169.686C331.388 180.231 324.283 189.594 315.437 197.128C306.591 204.662 296.215 210.187 285.026 213.324C273.836 216.46 262.099 217.131 250.625 215.292H123.347C118.431 215.967 113.474 216.305 108.512 216.305C104.95 216.305 101.431 216.135 97.9543 215.796C71.2074 213.2 46.3866 200.734 28.3361 180.832C10.2854 160.929 0.299639 135.017 0.327052 108.153C0.327052 48.42 48.7647 0 108.512 0C156.632 0 197.407 31.4092 211.459 74.8383C225.954 62.5099 244.372 55.7539 263.403 55.784C307.729 55.784 343.673 91.7172 343.673 136.045Z" fill="#D2D2D2"/>
<path opacity="0.1" d="M312.833 199.279C304.122 206.08 294.102 211.011 283.398 213.766C272.695 216.521 261.539 217.041 250.626 215.292H123.347C118.431 215.967 113.475 216.305 108.513 216.305C104.951 216.305 101.432 216.135 97.955 215.796C76.8761 213.729 56.8674 205.525 40.4073 192.2C23.9471 178.876 11.7591 161.017 5.35327 140.835C15.7163 118.698 42.34 102.946 73.5552 102.946C103.973 102.946 130.045 117.907 140.927 139.157C146.285 138.183 151.72 137.695 157.166 137.698C188.693 137.698 215.536 153.777 225.671 176.247C234.066 173.703 242.793 172.419 251.566 172.439C277.279 172.451 299.878 183.137 312.833 199.279Z" fill="#0147D0"/>
<path d="M105.726 201.694C105.726 209.37 102.779 213.537 97.955 215.796C79.7805 214.041 62.3514 207.692 47.3084 197.347C47.6941 194.737 48.4331 192.193 49.5051 189.782L63.2275 194.049L51.0065 186.858C52.6593 184.037 54.7711 181.512 57.2549 179.386L80.3096 186.553L62.2476 175.947C65.9669 173.91 70.0831 172.702 74.3138 172.406C78.5445 172.111 82.7896 172.734 86.756 174.235C90.7225 175.736 94.3168 178.077 97.2918 181.098C100.267 184.12 102.552 187.75 103.99 191.739L104.053 191.919C104.101 192.053 104.149 192.188 104.194 192.326C104.356 192.803 104.505 193.286 104.641 193.773C104.692 193.947 104.74 194.121 104.781 194.297C104.823 194.474 104.868 194.633 104.908 194.8C104.946 194.968 104.98 195.1 105.009 195.238C105.031 195.328 105.051 195.418 105.069 195.508C105.102 195.651 105.132 195.807 105.159 195.942C105.201 196.151 105.243 196.365 105.279 196.574C105.315 196.784 105.354 197.011 105.387 197.23C105.42 197.449 105.459 197.716 105.489 197.961C105.518 198.207 105.543 198.398 105.564 198.618C105.564 198.686 105.579 198.752 105.584 198.821C105.605 199.013 105.62 199.205 105.635 199.396C105.637 199.421 105.637 199.446 105.635 199.471C105.654 199.711 105.669 199.95 105.681 200.19C105.692 200.43 105.702 200.663 105.707 200.891C105.709 200.914 105.709 200.937 105.707 200.96C105.722 201.2 105.726 201.445 105.726 201.694Z" fill="#138799"/>
<path opacity="0.1" d="M105.725 201.694C105.725 209.37 102.779 213.537 97.9543 215.796C86.2014 214.665 74.7154 211.603 63.9584 206.736L64.4499 206.41C66.6706 204.938 68.9661 203.435 71.5795 202.934C73.8776 202.494 76.2483 202.865 78.5831 202.734C82.647 202.485 86.4728 200.733 89.3144 197.817C90.9841 196.092 92.311 193.974 94.3044 192.655C96.4678 191.235 99.2133 190.93 101.778 191.283C102.524 191.392 103.262 191.543 103.99 191.736L104.053 191.915C104.101 192.05 104.149 192.185 104.194 192.323C104.356 192.8 104.505 193.282 104.64 193.77C104.691 193.943 104.74 194.117 104.781 194.294C104.823 194.471 104.868 194.629 104.907 194.798C104.946 194.965 104.979 195.097 105.009 195.235C105.03 195.325 105.051 195.415 105.069 195.504C105.102 195.648 105.132 195.804 105.159 195.939C105.201 196.149 105.242 196.361 105.278 196.571C105.314 196.78 105.354 197.009 105.386 197.227C105.42 197.446 105.458 197.712 105.488 197.958C105.518 198.204 105.543 198.396 105.564 198.614C105.564 198.683 105.579 198.749 105.584 198.818C105.605 199.01 105.62 199.201 105.635 199.393C105.637 199.418 105.637 199.443 105.635 199.468C105.653 199.708 105.668 199.948 105.68 200.187C105.692 200.426 105.701 200.661 105.707 200.888C105.709 200.911 105.709 200.934 105.707 200.957C105.722 201.199 105.725 201.445 105.725 201.694Z" fill="black"/>
<path d="M280.68 206.677C280.682 207.458 280.602 208.237 280.44 209.001C280.41 209.145 280.377 209.286 280.344 209.423C279.493 212.836 277.093 215.332 274.228 215.491C274.132 215.491 274.036 215.491 273.928 215.491C270.899 215.491 268.336 212.878 267.491 209.28C267.467 209.184 267.446 209.088 267.425 208.98C267.263 208.216 267.183 207.437 267.185 206.655C267.185 201.781 270.203 197.833 273.928 197.833C277.653 197.833 280.68 201.802 280.68 206.677Z" fill="#3F3D56"/>
<path opacity="0.1" d="M280.68 206.676C280.682 207.457 280.601 208.237 280.44 209.001C280.41 209.145 280.377 209.285 280.344 209.423C280.242 209.423 280.143 209.423 280.044 209.423C279.302 209.383 278.564 209.283 277.839 209.124C277.195 209.323 276.538 209.473 275.872 209.573C275.362 209.65 274.848 209.698 274.332 209.717C274.158 209.717 273.985 209.717 273.811 209.717C273.194 209.717 272.577 209.676 271.965 209.594C270.975 209.462 270.003 209.221 269.067 208.875C268.554 209.046 268.032 209.186 267.503 209.295C267.478 209.199 267.457 209.103 267.436 208.995C267.275 208.23 267.194 207.452 267.197 206.67C267.197 201.796 270.215 197.847 273.94 197.847C277.665 197.847 280.68 201.802 280.68 206.676Z" fill="black"/>
<path d="M295.064 190.241C295.067 188.095 294.564 185.98 293.595 184.066L285.666 186.532L292.628 182.442C291.46 180.756 289.929 179.353 288.147 178.337C286.365 177.321 284.377 176.719 282.33 176.573C282.005 176.08 281.648 175.607 281.261 175.159L269.873 178.703L279.214 173.212C277.427 171.841 275.329 170.931 273.107 170.564C270.885 170.196 268.606 170.382 266.473 171.104C264.34 171.827 262.417 173.063 260.876 174.706C259.335 176.348 258.222 178.344 257.637 180.519L267.391 191.745L256.81 184.093C254.129 185.994 252.221 188.794 251.433 191.983C250.644 195.172 251.028 198.539 252.515 201.469C254.001 204.399 256.491 206.698 259.531 207.946C262.571 209.194 265.958 209.309 269.075 208.27C271.895 209.306 274.977 209.391 277.85 208.512C279.853 208.951 281.929 208.935 283.924 208.466C285.92 207.996 287.785 207.086 289.383 205.802C290.981 204.517 292.27 202.891 293.156 201.043C294.042 199.194 294.503 197.171 294.504 195.121C294.504 194.821 294.504 194.522 294.474 194.222C294.866 192.932 295.065 191.59 295.064 190.241Z" fill="#138799"/>
<path opacity="0.1" d="M294.828 192.781C290.641 191.988 286.346 191.933 282.14 192.62C277.378 193.407 272.511 195.139 267.854 193.875C265.121 193.132 262.759 191.412 260.089 190.456C257.513 189.558 254.738 189.392 252.073 189.977C251.057 192.406 250.762 195.075 251.224 197.667C251.686 200.259 252.884 202.663 254.675 204.592C256.467 206.521 258.776 207.894 261.328 208.546C263.879 209.198 266.563 209.102 269.062 208.27C271.882 209.306 274.963 209.392 277.836 208.513C279.84 208.954 281.917 208.939 283.915 208.472C285.913 208.004 287.78 207.094 289.38 205.809C290.979 204.524 292.27 202.896 293.157 201.047C294.043 199.198 294.504 197.172 294.505 195.121C294.505 194.822 294.505 194.522 294.474 194.222C294.619 193.748 294.737 193.268 294.828 192.781Z" fill="black"/>
<path d="M214.156 75.024H212.874C212.495 75.024 212.187 75.3308 212.187 75.7101V96.214C212.187 96.5927 212.495 96.9001 212.874 96.9001H214.156C214.535 96.9001 214.842 96.5927 214.842 96.214V75.7101C214.842 75.3308 214.535 75.024 214.156 75.024Z" fill="#3A3768"/>
<path d="M124.752 57.8842H124.636C124.257 57.8842 123.949 58.1913 123.949 58.5702V64.4003C123.949 64.7792 124.257 65.0864 124.636 65.0864H124.752C125.132 65.0864 125.439 64.7792 125.439 64.4003V58.5702C125.439 58.1913 125.132 57.8842 124.752 57.8842Z" fill="#3A3768"/>
<path d="M124.886 71.072H124.581C124.202 71.072 123.894 71.3794 123.894 71.7581V82.9211C123.894 83.2997 124.202 83.6071 124.581 83.6071H124.886C125.266 83.6071 125.572 83.2997 125.572 82.9211V71.7581C125.572 71.3794 125.266 71.072 124.886 71.072Z" fill="#3A3768"/>
<path d="M124.833 87.9927H124.609C124.23 87.9927 123.922 88.3001 123.922 88.6794V99.9496C123.922 100.328 124.23 100.636 124.609 100.636H124.833C125.213 100.636 125.52 100.328 125.52 99.9496V88.6794C125.52 88.3001 125.213 87.9927 124.833 87.9927Z" fill="#3A3768"/>
<path d="M201.935 34.0846H136.478C130.025 34.0846 124.794 39.3144 124.794 45.7657V202.874C124.794 209.326 130.025 214.555 136.478 214.555H201.935C208.388 214.555 213.619 209.326 213.619 202.874V45.7657C213.619 39.3144 208.388 34.0846 201.935 34.0846Z" fill="#3F3D56"/>
<path d="M171.884 39.4741H161.799C161.159 39.4741 160.639 39.9932 160.639 40.6335V40.8312C160.639 41.4715 161.159 41.9907 161.799 41.9907H171.884C172.524 41.9907 173.043 41.4715 173.043 40.8312V40.6335C173.043 39.9932 172.524 39.4741 171.884 39.4741Z" fill="#E6E8EC"/>
<path d="M176.346 42.1616C177.135 42.1616 177.775 41.5217 177.775 40.7325C177.775 39.9433 177.135 39.3035 176.346 39.3035C175.556 39.3035 174.916 39.9433 174.916 40.7325C174.916 41.5217 175.556 42.1616 176.346 42.1616Z" fill="#E6E8EC"/>
<path d="M201.069 38.7852H190.91V40.0105C190.91 41.5504 190.298 43.0271 189.209 44.116C188.12 45.2049 186.642 45.8166 185.102 45.8166H152.682C151.142 45.8166 149.665 45.2049 148.576 44.116C147.486 43.0271 146.874 41.5504 146.874 40.0105V38.7852H137.333C136.406 38.7852 135.489 38.9676 134.634 39.322C133.778 39.6765 133 40.196 132.345 40.8509C131.691 41.5058 131.171 42.2833 130.817 43.1389C130.463 43.9945 130.281 44.9116 130.281 45.8375V202.802C130.281 203.728 130.463 204.645 130.817 205.501C131.171 206.357 131.691 207.134 132.345 207.789C133 208.444 133.778 208.964 134.634 209.318C135.489 209.673 136.406 209.855 137.333 209.855H201.069C202.94 209.855 204.734 209.112 206.057 207.789C207.38 206.467 208.124 204.673 208.124 202.802V45.8375C208.124 43.9671 207.38 42.1733 206.057 40.8507C204.734 39.5282 202.94 38.7852 201.069 38.7852Z" fill="#138799"/>
<path opacity="0.1" d="M178.197 66.9498H133.545V74.1398H178.197V66.9498Z" fill="black" stroke="#38D39F" stroke-width="0.563934" stroke-miterlimit="10"/>
<path opacity="0.1" d="M144.333 116.083C149.629 116.083 153.922 111.791 153.922 106.496C153.922 101.201 149.629 96.9092 144.333 96.9092C139.036 96.9092 134.743 101.201 134.743 106.496C134.743 111.791 139.036 116.083 144.333 116.083Z" fill="black" stroke="#38D39F" stroke-width="0.563934" stroke-miterlimit="10"/>
<path d="M141.636 104.698V108.293H144.034L147.031 111.424V101.564L144.034 104.698H141.636Z" fill="white"/>
<path opacity="0.1" d="M169.807 116.083C175.103 116.083 179.396 111.791 179.396 106.496C179.396 101.201 175.103 96.9092 169.807 96.9092C164.51 96.9092 160.216 101.201 160.216 106.496C160.216 111.791 164.51 116.083 169.807 116.083Z" fill="black" stroke="#38D39F" stroke-width="0.563934" stroke-miterlimit="10"/>
<path d="M169.806 110.499C169.58 110.497 169.359 110.563 169.169 110.688C168.98 110.813 168.833 110.992 168.745 111.201C168.657 111.41 168.634 111.64 168.677 111.862C168.721 112.084 168.829 112.289 168.989 112.45C169.149 112.61 169.353 112.72 169.575 112.765C169.797 112.81 170.028 112.787 170.237 112.701C170.447 112.614 170.626 112.468 170.752 112.279C170.878 112.091 170.946 111.869 170.946 111.643C170.946 111.34 170.826 111.05 170.612 110.835C170.399 110.621 170.109 110.5 169.806 110.499ZM166.45 100.205C166.223 100.203 166.002 100.268 165.812 100.393C165.622 100.517 165.474 100.696 165.386 100.904C165.299 101.114 165.274 101.344 165.317 101.566C165.361 101.789 165.469 101.994 165.629 102.155C165.788 102.316 165.992 102.426 166.215 102.471C166.437 102.515 166.667 102.494 166.877 102.407C167.087 102.32 167.266 102.174 167.393 101.986C167.519 101.797 167.586 101.575 167.586 101.349C167.586 101.047 167.467 100.757 167.254 100.543C167.041 100.328 166.752 100.207 166.45 100.205ZM166.45 103.637C166.223 103.636 166.001 103.702 165.812 103.826C165.622 103.951 165.474 104.129 165.386 104.339C165.298 104.548 165.274 104.778 165.317 105.001C165.361 105.223 165.47 105.428 165.629 105.589C165.79 105.75 165.994 105.86 166.217 105.904C166.439 105.949 166.67 105.926 166.879 105.839C167.089 105.753 167.268 105.605 167.394 105.417C167.52 105.228 167.587 105.006 167.586 104.779C167.586 104.477 167.467 104.188 167.254 103.974C167.041 103.76 166.752 103.639 166.45 103.637ZM166.45 107.068C166.223 107.066 166.002 107.132 165.812 107.257C165.622 107.381 165.474 107.559 165.386 107.768C165.299 107.977 165.274 108.208 165.317 108.43C165.361 108.653 165.469 108.858 165.629 109.019C165.788 109.179 165.992 109.289 166.215 109.334C166.437 109.379 166.667 109.357 166.877 109.27C167.087 109.184 167.266 109.038 167.393 108.849C167.519 108.661 167.586 108.439 167.586 108.212C167.586 107.911 167.467 107.621 167.254 107.406C167.041 107.192 166.752 107.07 166.45 107.068ZM173.163 102.493C173.39 102.494 173.612 102.428 173.801 102.303C173.99 102.178 174.138 102 174.225 101.791C174.313 101.582 174.336 101.352 174.293 101.129C174.249 100.907 174.141 100.702 173.981 100.541C173.821 100.381 173.617 100.271 173.395 100.227C173.173 100.182 172.942 100.205 172.732 100.291C172.523 100.377 172.344 100.524 172.218 100.712C172.092 100.901 172.024 101.122 172.024 101.349C172.024 101.499 172.053 101.647 172.111 101.786C172.167 101.925 172.251 102.05 172.356 102.157C172.462 102.263 172.588 102.348 172.727 102.405C172.865 102.463 173.013 102.493 173.163 102.493ZM169.806 107.068C169.58 107.067 169.359 107.133 169.169 107.258C168.98 107.383 168.833 107.561 168.745 107.77C168.657 107.979 168.634 108.21 168.677 108.432C168.721 108.654 168.829 108.859 168.989 109.02C169.149 109.18 169.353 109.29 169.575 109.334C169.797 109.379 170.028 109.357 170.237 109.27C170.447 109.184 170.626 109.038 170.752 108.849C170.878 108.661 170.946 108.439 170.946 108.212C170.946 107.91 170.826 107.62 170.612 107.405C170.399 107.191 170.109 107.07 169.806 107.068ZM173.163 107.068C172.937 107.067 172.715 107.133 172.526 107.258C172.337 107.383 172.189 107.561 172.101 107.77C172.014 107.979 171.99 108.21 172.034 108.432C172.077 108.654 172.186 108.859 172.346 109.02C172.506 109.18 172.71 109.29 172.932 109.334C173.154 109.379 173.385 109.357 173.594 109.27C173.804 109.184 173.983 109.038 174.108 108.849C174.235 108.661 174.302 108.439 174.302 108.212C174.302 107.91 174.182 107.62 173.969 107.405C173.755 107.191 173.466 107.07 173.163 107.068ZM173.163 103.637C172.937 103.637 172.714 103.703 172.525 103.828C172.336 103.953 172.188 104.131 172.101 104.341C172.014 104.55 171.99 104.781 172.034 105.003C172.078 105.225 172.186 105.43 172.347 105.59C172.507 105.751 172.711 105.86 172.933 105.904C173.156 105.949 173.386 105.926 173.596 105.839C173.806 105.753 173.984 105.605 174.11 105.416C174.236 105.227 174.303 105.006 174.302 104.779C174.302 104.477 174.182 104.187 173.969 103.973C173.755 103.759 173.466 103.639 173.163 103.637ZM169.806 103.637C169.58 103.637 169.358 103.703 169.169 103.828C168.98 103.953 168.832 104.131 168.744 104.341C168.657 104.55 168.634 104.781 168.678 105.003C168.722 105.225 168.83 105.43 168.99 105.59C169.151 105.751 169.355 105.86 169.577 105.904C169.799 105.949 170.03 105.926 170.239 105.839C170.449 105.753 170.628 105.605 170.753 105.416C170.88 105.227 170.946 105.006 170.946 104.779C170.946 104.477 170.825 104.187 170.612 103.973C170.399 103.759 170.109 103.639 169.806 103.637ZM169.806 100.205C169.58 100.203 169.359 100.269 169.169 100.394C168.98 100.519 168.833 100.698 168.745 100.906C168.657 101.116 168.634 101.346 168.677 101.568C168.721 101.791 168.829 101.995 168.989 102.156C169.149 102.316 169.353 102.426 169.575 102.471C169.797 102.515 170.028 102.493 170.237 102.407C170.447 102.32 170.626 102.174 170.752 101.986C170.878 101.797 170.946 101.575 170.946 101.349C170.946 101.046 170.826 100.756 170.612 100.541C170.399 100.327 170.109 100.206 169.806 100.205Z" fill="white"/>
<g opacity="0.4">
<path opacity="0.1" d="M144.333 144.844C149.629 144.844 153.922 140.552 153.922 135.257C153.922 129.962 149.629 125.67 144.333 125.67C139.036 125.67 134.743 129.962 134.743 135.257C134.743 140.552 139.036 144.844 144.333 144.844Z" fill="black" stroke="#38D39F" stroke-width="0.563934" stroke-miterlimit="10"/>
<path opacity="0.4" d="M148.827 135.856H144.931V139.75H143.732V135.856H139.837V134.658H143.732V130.762H144.931V134.658H148.827V135.856Z" fill="white"/>
</g>
<path opacity="0.1" d="M195.279 116.083C200.576 116.083 204.869 111.791 204.869 106.496C204.869 101.201 200.576 96.9092 195.279 96.9092C189.983 96.9092 185.689 101.201 185.689 106.496C185.689 111.791 189.983 116.083 195.279 116.083Z" fill="black" stroke="#38D39F" stroke-width="0.563934" stroke-miterlimit="10"/>
<path d="M195.28 100.651C194.562 100.66 193.853 100.811 193.193 101.094C192.534 101.377 191.936 101.788 191.435 102.302C190.935 102.816 190.54 103.424 190.274 104.091C190.008 104.757 189.876 105.469 189.885 106.187V110.493C189.883 110.731 189.927 110.969 190.015 111.191C190.104 111.414 190.235 111.616 190.402 111.788C190.569 111.959 190.768 112.096 190.988 112.19C191.208 112.285 191.445 112.335 191.684 112.338H193.482V107.391H191.084V106.193C191.084 105.081 191.526 104.014 192.313 103.227C193.1 102.441 194.167 101.999 195.28 101.999C196.393 101.999 197.46 102.441 198.247 103.227C199.033 104.014 199.476 105.081 199.476 106.193V107.391H197.078V112.335H198.876C199.115 112.332 199.352 112.282 199.572 112.188C199.792 112.094 199.992 111.957 200.158 111.786C200.326 111.614 200.457 111.411 200.545 111.189C200.634 110.966 200.678 110.729 200.674 110.489V106.187C200.683 105.469 200.552 104.757 200.286 104.091C200.02 103.424 199.625 102.816 199.124 102.302C198.623 101.788 198.026 101.377 197.366 101.094C196.707 100.811 195.998 100.66 195.28 100.651Z" fill="white"/>
<g opacity="0.4">
<path opacity="0.1" d="M169.807 144.844C175.103 144.844 179.396 140.552 179.396 135.257C179.396 129.962 175.103 125.67 169.807 125.67C164.51 125.67 160.216 129.962 160.216 135.257C160.216 140.552 164.51 144.844 169.807 144.844Z" fill="black" stroke="#38D39F" stroke-width="0.563934" stroke-miterlimit="10"/>
<path opacity="0.4" d="M173.402 134.229V131.832C173.401 131.742 173.382 131.651 173.346 131.568C173.31 131.484 173.258 131.409 173.193 131.345C173.128 131.282 173.051 131.232 172.967 131.198C172.882 131.165 172.792 131.148 172.701 131.149H164.208C164.025 131.148 163.849 131.218 163.718 131.347C163.587 131.475 163.512 131.649 163.51 131.832V138.666C163.513 138.848 163.588 139.023 163.719 139.151C163.849 139.279 164.025 139.35 164.208 139.349H172.698C172.881 139.351 173.058 139.279 173.189 139.152C173.32 139.024 173.396 138.849 173.399 138.666V136.269L176.096 139.001V131.497L173.402 134.229Z" fill="white"/>
</g>
<path opacity="0.1" d="M195.279 144.844C200.576 144.844 204.869 140.552 204.869 135.257C204.869 129.962 200.576 125.67 195.279 125.67C189.983 125.67 185.689 129.962 185.689 135.257C185.689 140.552 189.983 144.844 195.279 144.844Z" fill="black" stroke="#38D39F" stroke-width="0.563934" stroke-miterlimit="10"/>
<path d="M194.806 137.726C194.29 138.018 193.707 138.172 193.114 138.172C192.521 138.172 191.938 138.018 191.422 137.726C190.098 138.13 189.286 139.469 188.986 140.646H197.242C196.943 139.469 196.134 138.13 194.806 137.726ZM193.115 131.434C192.527 131.434 191.951 131.608 191.461 131.934C190.971 132.261 190.589 132.725 190.364 133.269C190.138 133.813 190.079 134.411 190.193 134.989C190.309 135.566 190.592 136.097 191.008 136.512C191.425 136.928 191.955 137.212 192.533 137.327C193.11 137.442 193.709 137.382 194.253 137.157C194.797 136.931 195.261 136.55 195.588 136.06C195.915 135.57 196.089 134.995 196.089 134.406C196.089 133.618 195.775 132.862 195.217 132.305C194.66 131.747 193.904 131.434 193.115 131.434ZM193.115 136.671C192.668 136.662 192.233 136.524 191.864 136.271C191.494 136.019 191.206 135.664 191.036 135.251H195.193C195.023 135.664 194.735 136.019 194.367 136.272C193.998 136.525 193.563 136.665 193.115 136.674V136.671Z" fill="white"/>
<path d="M197.15 138.848H201.574C201.436 138.227 201.139 137.652 200.712 137.179C200.284 136.706 199.742 136.352 199.137 136.152C198.621 136.445 198.037 136.599 197.444 136.599C197.045 136.603 196.65 136.535 196.275 136.401C196.066 136.767 195.801 137.099 195.489 137.384C196.175 137.698 196.753 138.208 197.15 138.848ZM196.701 133.681H199.523C199.352 134.093 199.064 134.446 198.695 134.698C198.325 134.949 197.89 135.087 197.444 135.095C197.2 135.093 196.96 135.051 196.73 134.969C196.693 135.209 196.632 135.445 196.548 135.673C196.957 135.803 197.39 135.844 197.816 135.792C198.243 135.739 198.653 135.595 199.018 135.369C199.384 135.142 199.696 134.84 199.933 134.482C200.171 134.123 200.328 133.719 200.393 133.293C200.459 132.869 200.432 132.435 200.314 132.022C200.196 131.609 199.99 131.227 199.71 130.9C199.43 130.575 199.082 130.313 198.692 130.134C198.301 129.955 197.876 129.863 197.447 129.864C196.947 129.865 196.455 129.991 196.016 130.232C195.578 130.473 195.207 130.82 194.938 131.242C195.387 131.501 195.777 131.852 196.081 132.273C196.385 132.693 196.596 133.173 196.701 133.681Z" fill="white"/>
<path d="M169.807 183.191C175.103 183.191 179.396 178.899 179.396 173.604C179.396 168.309 175.103 164.017 169.807 164.017C164.51 164.017 160.216 168.309 160.216 173.604C160.216 178.899 164.51 183.191 169.807 183.191Z" fill="#FF6F61"/>
<path d="M164.882 175.971C165.406 175.476 166.004 175.063 166.653 174.749C166.754 174.704 166.839 174.631 166.898 174.538C166.957 174.445 166.988 174.337 166.986 174.228L167.037 172.364C168.869 171.82 170.828 171.872 172.628 172.514L172.578 174.377C172.576 174.486 172.603 174.592 172.656 174.687C172.708 174.781 172.785 174.861 172.878 174.917C173.528 175.256 174.118 175.701 174.622 176.235C174.675 176.292 174.741 176.338 174.813 176.371C174.885 176.403 174.962 176.42 175.041 176.422C175.12 176.425 175.198 176.411 175.272 176.383C175.345 176.355 175.413 176.313 175.47 176.259L176.992 174.815C177.107 174.706 177.174 174.556 177.178 174.398C177.183 174.239 177.125 174.086 177.016 173.97C176.096 172.999 174.993 172.218 173.771 171.673C172.549 171.128 171.232 170.828 169.894 170.792C168.556 170.756 167.225 170.984 165.975 171.462C164.725 171.941 163.582 172.661 162.611 173.581C162.553 173.635 162.507 173.7 162.475 173.772C162.443 173.844 162.426 173.921 162.424 174C162.422 174.079 162.436 174.157 162.464 174.231C162.492 174.304 162.535 174.371 162.59 174.428L164.031 175.95C164.085 176.007 164.15 176.053 164.222 176.085C164.294 176.117 164.372 176.135 164.45 176.137C164.529 176.139 164.608 176.125 164.681 176.097C164.755 176.068 164.822 176.025 164.879 175.971H164.882Z" fill="white"/>
<path opacity="0.1" d="M196.478 80.4312C200.615 80.4312 203.97 77.0782 203.97 72.9417C203.97 68.8052 200.615 65.4515 196.478 65.4515C192.34 65.4515 188.986 68.8052 188.986 72.9417C188.986 77.0782 192.34 80.4312 196.478 80.4312Z" fill="black" stroke="#38D39F" stroke-width="0.563934" stroke-miterlimit="10"/>
<path d="M198.171 74.6225C197.654 74.9148 197.071 75.0685 196.478 75.0685C195.884 75.0685 195.3 74.9148 194.784 74.6225C193.459 75.0266 192.648 76.366 192.348 77.5465H200.607C200.307 76.366 199.495 75.0266 198.171 74.6225ZM196.478 68.3311C195.889 68.3304 195.313 68.5044 194.824 68.8307C194.334 69.157 193.952 69.6214 193.726 70.1655C193.5 70.709 193.441 71.3067 193.556 71.8842C193.67 72.4617 193.953 72.9921 194.369 73.408C194.785 73.8246 195.315 74.1084 195.893 74.2235C196.47 74.3386 197.069 74.2798 197.612 74.0548C198.156 73.8292 198.621 73.4479 198.948 72.9587C199.275 72.4695 199.45 71.894 199.45 71.3061C199.449 70.5173 199.136 69.762 198.579 69.2041C198.022 68.6463 197.266 68.3324 196.478 68.3311ZM196.478 73.5708C196.03 73.5617 195.595 73.4224 195.226 73.1706C194.856 72.9182 194.569 72.5637 194.398 72.1504H198.557C198.386 72.5637 198.098 72.9182 197.729 73.1712C197.36 73.4237 196.925 73.5636 196.478 73.5735V73.5708Z" fill="white"/>
<path opacity="0.1" d="M121.573 19.8899C120.875 19.4854 119.93 19.8719 119.451 20.522C118.972 21.1722 118.852 22.02 118.717 22.8079C118.45 24.5785 118.256 26.6127 119.451 27.9489C117.497 22.0259 111.878 17.4872 105.666 16.8251" stroke="#0147D0" stroke-width="1.6918" stroke-miterlimit="10"/>
<path opacity="0.1" d="M242.653 117.632C242.204 117.371 241.599 117.632 241.29 118.039C241.016 118.483 240.854 118.987 240.816 119.507C240.646 120.649 240.517 121.955 241.29 122.803C240.632 120.901 239.453 119.223 237.887 117.959C236.321 116.694 234.432 115.895 232.434 115.651" stroke="#0147D0" stroke-width="1.6918" stroke-miterlimit="10"/>
<path opacity="0.1" d="M89.9651 78.9002C89.5159 78.6426 88.9103 78.9002 88.6016 79.3077C88.3275 79.753 88.1654 80.2573 88.1281 80.7792C87.9574 81.9171 87.8286 83.2238 88.6016 84.0746C87.943 82.1735 86.7639 80.4953 85.1982 79.2312C83.6325 77.967 81.7438 77.1672 79.7465 76.9232" stroke="#0147D0" stroke-width="1.6918" stroke-miterlimit="10"/>
<path d="M209.161 218.993C209.46 219.559 210.023 219.906 210.566 220.215C214.334 222.375 218.305 224.162 222.421 225.55C222.524 225.61 222.639 225.646 222.756 225.655C222.875 225.664 222.993 225.646 223.104 225.603C223.214 225.561 223.314 225.493 223.395 225.407C223.476 225.321 223.537 225.217 223.572 225.104C224.045 224.307 224.564 223.007 224.441 221.955C224.831 221.719 225.113 221.341 225.229 220.901C225.391 220.366 225.638 219.86 225.96 219.403C226.521 218.558 227.198 217.71 227.288 216.683C227.28 216.316 227.315 215.95 227.393 215.592C227.552 215.119 227.975 214.807 228.292 214.43C228.786 213.831 229.023 213.058 229.248 212.306C230.183 209.181 231.118 206.056 231.897 202.883C232.149 201.856 232.382 200.825 232.727 199.827C233.027 198.953 233.411 198.114 233.791 197.275C235.152 194.234 236.736 191.299 238.529 188.491C238.809 189.434 239.149 190.359 239.545 191.259C239.749 191.724 239.967 192.182 240.174 192.647C240.956 194.396 240.816 196.643 241.778 198.288C242.177 198.963 242.571 199.637 242.958 200.31C243.179 200.64 243.349 201 243.465 201.379C243.528 201.643 243.534 201.919 243.579 202.186C243.783 203.384 244.757 204.229 245.296 205.298C245.791 206.275 245.895 207.395 246.195 208.471C246.905 210.958 248.649 213.117 248.826 215.709C248.849 216.409 248.832 217.108 248.775 217.806C248.73 219.027 248.812 220.25 249.018 221.455C249.034 221.577 249.066 221.696 249.114 221.809C247.579 224.093 245.214 225.689 242.521 226.26C242.011 226.362 241.427 226.47 241.16 226.937C240.84 227.495 241.202 228.262 241.759 228.561C242.317 228.861 242.958 228.831 243.558 228.777C247.857 228.417 252.111 227.632 256.255 226.434C256.464 226.391 256.657 226.287 256.806 226.135C256.954 225.916 257.019 225.651 256.99 225.389C256.988 224.421 256.762 223.466 256.33 222.599L256.63 222.495C256.798 221.297 256.181 220.137 255.701 219.025C254.868 217.087 254.412 214.993 253.753 212.977C252.482 209.082 250.429 205.448 249.935 201.373C249.8 200.253 249.465 199.114 249.393 197.988C249.249 195.693 249.093 193.386 248.592 191.151C248.173 189.312 247.511 187.556 247.094 185.696C246.677 183.835 246.543 181.879 247.154 180.1C247.327 179.59 247.562 179.108 247.721 178.601C248.32 176.621 247.747 174.476 247.166 172.487C246.982 171.857 246.8 171.23 246.621 170.606C246.378 169.782 246.138 168.954 245.874 168.137C245.91 168.103 245.943 168.071 245.979 168.032C246.507 167.432 246.501 166.516 246.878 165.8C247.064 165.431 247.346 165.129 247.543 164.769C247.917 163.992 248.014 163.11 247.816 162.271C247.658 161.432 247.34 160.635 247.1 159.817C246.449 157.572 246.399 155.196 246.956 152.926C247.199 151.959 247.556 151.009 247.607 150.011C247.624 149.344 247.562 148.678 247.424 148.025C246.959 145.509 246.048 142.956 244.199 141.293C243.213 140.394 241.88 139.606 241.774 138.24C241.616 138.179 241.44 138.173 241.277 138.223C241.193 137.912 241.137 137.594 241.109 137.273H241.124C241.216 137.283 241.309 137.283 241.4 137.273C241.478 137.268 241.553 137.246 241.622 137.21C241.661 137.187 241.697 137.16 241.73 137.129C241.846 137.009 241.947 136.875 242.029 136.731C242.152 136.527 242.263 136.308 242.356 136.159C242.449 136.009 242.599 135.769 242.716 135.559C243.065 134.96 243.39 134.351 243.689 133.732V133.707C243.719 133.651 243.747 133.591 243.774 133.534L243.81 133.453L243.863 133.33C243.863 133.3 243.891 133.267 243.903 133.237C243.914 133.207 243.935 133.163 243.95 133.123L243.992 133.025C244.007 132.989 244.02 132.953 244.034 132.913C244.049 132.881 244.062 132.847 244.073 132.812C244.088 132.776 244.1 132.74 244.112 132.704C244.124 132.668 244.136 132.635 244.151 132.599C244.166 132.563 244.172 132.528 244.184 132.492L244.22 132.384C244.22 132.348 244.238 132.314 244.25 132.278L244.28 132.168L244.307 132.063L244.334 131.949C244.334 131.916 244.334 131.883 244.355 131.847C244.376 131.811 244.355 131.77 244.376 131.73C244.397 131.691 244.376 131.664 244.376 131.632L244.394 131.515V131.416C244.394 131.374 244.394 131.335 244.394 131.296C244.394 131.257 244.394 131.23 244.394 131.197C244.394 131.164 244.394 131.116 244.394 131.077V131.008C244.394 130.967 244.394 130.927 244.394 130.885C244.394 130.844 244.394 130.826 244.394 130.796C244.394 130.766 244.394 130.711 244.394 130.67C244.394 130.628 244.394 130.613 244.394 130.586C244.379 130.469 244.356 130.352 244.325 130.239C244.123 129.541 243.714 128.921 243.15 128.462C242.606 128.017 242 127.653 241.352 127.38C241.194 127.32 241.05 127.229 240.927 127.114C240.782 126.905 240.663 126.679 240.57 126.443C240.306 125.981 239.779 125.774 239.284 125.652C238.79 125.529 238.259 125.451 237.846 125.136C237.809 125.105 237.766 125.08 237.72 125.064C237.656 125.06 237.593 125.073 237.537 125.103L236.384 125.616C236.372 125.544 236.346 125.476 236.308 125.414C236.27 125.353 236.219 125.299 236.16 125.257C236.101 125.215 236.034 125.185 235.964 125.169C235.893 125.153 235.82 125.151 235.748 125.163C235.463 125.232 235.204 125.381 235.002 125.592C234.966 125.556 234.942 125.512 234.93 125.463C234.917 125.415 234.919 125.364 234.933 125.316L234.034 125.915C233.923 125.987 233.719 126.005 233.734 125.867C233.234 126.413 232.8 127.017 232.443 127.665C232.331 127.863 232.237 128.071 232.161 128.285C232.161 128.33 232.134 128.375 232.122 128.42C232.12 128.429 232.12 128.438 232.122 128.447C232.122 128.486 232.104 128.528 232.098 128.57C232.097 128.581 232.097 128.594 232.098 128.606C232.098 128.657 232.098 128.71 232.098 128.761C232.095 128.819 232.095 128.877 232.098 128.935C232.107 129.102 232.16 129.263 232.251 129.403C232.342 129.542 232.468 129.656 232.617 129.732C232.731 129.775 232.853 129.794 232.976 129.789C233.234 129.759 233.488 129.706 233.738 129.633C233.818 129.613 233.9 129.6 233.983 129.591C234.022 129.589 234.061 129.589 234.1 129.591C234.257 129.588 234.409 129.64 234.531 129.738L234.549 129.756C233.894 130.227 233.363 130.848 232.998 131.567C232.633 132.286 232.445 133.082 232.452 133.887C232.45 134.681 232.631 135.463 232.979 136.176C232.859 136.242 232.76 136.341 232.694 136.461C232.628 136.581 232.597 136.716 232.604 136.853C232.526 136.624 232.484 136.383 232.482 136.14C231.99 136.042 231.634 136.617 231.456 137.111C231.093 138.228 230.812 139.371 230.615 140.529C230.462 141.3 230.315 142.069 230.159 142.839C230.003 143.609 229.859 144.436 229.746 145.236C229.481 147.313 229.575 149.42 230.024 151.465C229.994 151.531 229.967 151.599 229.94 151.665C229.85 151.905 229.596 152.109 229.566 152.363C229.404 153.888 230.369 155.263 231.28 156.458C231.354 156.581 231.457 156.683 231.579 156.758C231.713 156.814 231.859 156.833 232.002 156.812C232.365 156.795 232.727 156.759 233.087 156.704C233.108 156.908 233.132 157.109 233.156 157.303C233.414 159.454 233.854 161.605 233.851 163.771C233.848 165.937 233.437 168.134 234.268 170.063C234.405 170.392 234.672 170.663 234.699 171.004H234.75C234.242 172.038 233.828 173.114 233.509 174.222C233.18 175.522 233.111 176.888 232.742 178.176C232.428 179.27 231.903 180.273 231.481 181.34C230.793 183.072 230.388 184.905 230.282 186.765C230.271 187.62 230.097 188.465 229.772 189.255C229.288 190.203 228.863 191.18 228.502 192.182C227.903 193.962 226.892 195.648 226.704 197.532C226.599 198.599 226.752 199.738 226.305 200.702C226.132 201.08 225.873 201.406 225.67 201.763C225.372 202.334 225.14 202.937 224.977 203.56L222.011 213.396C221.898 213.937 221.648 214.439 221.286 214.855C221.01 215.119 220.647 215.262 220.386 215.535C219.967 215.961 219.862 216.584 219.859 217.219C219.541 217.277 219.233 217.377 218.942 217.519C217.687 218.054 216.337 218.331 214.973 218.331C213.608 218.331 212.258 218.054 211.003 217.519C210.524 217.312 209.979 217.066 209.505 217.303C208.951 217.59 208.86 218.426 209.161 218.993ZM232.796 144.49C232.974 143.676 233.308 142.903 233.779 142.216C234.45 141.111 235.158 140.017 235.799 138.888L235.982 138.711C236.033 138.855 236.081 139.011 236.126 139.145C236.237 139.529 236.326 139.92 236.392 140.313C236.487 140.807 236.515 141.311 236.476 141.812L236.435 141.844C236.192 142 235.996 142.219 235.868 142.477C235.784 142.734 235.784 143.01 235.868 143.267L235.841 143.298L235.871 143.277C235.976 143.69 236.17 144.116 236.108 144.535C236.039 145.041 235.631 145.41 235.376 145.844C234.777 146.89 234.969 148.478 233.983 149.119L233.965 149.161C233.753 149.111 233.556 149.013 233.388 148.875C233.22 148.737 233.087 148.562 232.997 148.363C233.075 147.084 232.596 145.772 232.796 144.49Z" fill="url(#paint0_linear)"/>
<path d="M257.382 225.445C257.414 225.705 257.347 225.967 257.194 226.18C257.034 226.332 256.835 226.436 256.618 226.479C252.291 227.663 247.862 228.438 243.39 228.792C242.749 228.84 242.071 228.876 241.505 228.579C240.939 228.283 240.561 227.525 240.906 226.976C241.185 226.515 241.805 226.408 242.323 226.309C245.13 225.761 247.617 224.151 249.264 221.815C249.461 221.48 249.717 221.183 250.019 220.939C250.594 220.547 251.359 220.64 252.039 220.775C253.238 221.021 254.829 221.312 255.911 221.898C256.993 222.486 257.364 224.298 257.382 225.445Z" fill="#3F3D56"/>
<path opacity="0.1" d="M257.382 225.445C257.414 225.705 257.347 225.967 257.194 226.18C257.034 226.332 256.835 226.436 256.618 226.479C252.291 227.663 247.862 228.438 243.39 228.792C242.749 228.84 242.071 228.876 241.505 228.579C240.939 228.283 240.561 227.525 240.906 226.976C241.185 226.515 241.805 226.408 242.323 226.309C245.13 225.761 247.617 224.151 249.264 221.815C249.461 221.48 249.717 221.183 250.019 220.939C250.594 220.547 251.359 220.64 252.039 220.775C253.238 221.021 254.829 221.312 255.911 221.898C256.993 222.486 257.364 224.298 257.382 225.445Z" fill="black"/>
<path d="M222.557 225.155C222.44 225.39 222.24 225.574 221.996 225.671C221.781 225.707 221.56 225.681 221.358 225.595C217.085 224.232 212.949 222.469 209.006 220.332C208.442 220.032 207.854 219.685 207.54 219.133C207.225 218.582 207.321 217.734 207.9 217.456C208.385 217.222 208.954 217.456 209.452 217.668C212.105 218.738 215.07 218.738 217.723 217.668C218.071 217.494 218.448 217.384 218.835 217.345C219.527 217.33 220.123 217.818 220.633 218.307C221.508 219.167 222.68 220.278 223.267 221.356C223.854 222.435 223.165 224.181 222.557 225.155Z" fill="#3F3D56"/>
<path opacity="0.1" d="M222.557 225.155C222.44 225.39 222.24 225.574 221.996 225.671C221.781 225.707 221.56 225.681 221.358 225.595C217.085 224.232 212.949 222.469 209.006 220.332C208.442 220.032 207.854 219.685 207.54 219.133C207.225 218.582 207.321 217.734 207.9 217.456C208.385 217.222 208.954 217.456 209.452 217.668C212.105 218.738 215.07 218.738 217.723 217.668C218.071 217.494 218.448 217.384 218.835 217.345C219.527 217.33 220.123 217.818 220.633 218.307C221.508 219.167 222.68 220.278 223.267 221.356C223.854 222.435 223.165 224.181 222.557 225.155Z" fill="black"/>
<path d="M245.398 167.783C245.845 168.982 246.22 170.18 246.597 171.378L247.167 173.236C247.766 175.198 248.365 177.313 247.745 179.27C247.58 179.776 247.337 180.252 247.146 180.767C246.51 182.523 246.657 184.474 247.082 186.292C247.508 188.11 248.197 189.857 248.635 191.684C249.165 193.89 249.318 196.179 249.468 198.428C249.543 199.54 249.89 200.663 250.034 201.769C250.55 205.787 252.686 209.387 254.011 213.217C254.697 215.203 255.171 217.267 256.043 219.181C256.54 220.278 257.185 221.413 257.011 222.603C254.574 223.465 251.875 223.45 249.579 222.267C249.434 222.215 249.309 222.121 249.219 221.996C249.129 221.871 249.079 221.722 249.076 221.569C248.865 220.383 248.785 219.178 248.836 217.974C248.893 217.288 248.91 216.6 248.887 215.913C248.703 213.357 246.885 211.227 246.148 208.771C245.848 207.725 245.71 206.607 245.195 205.643C244.631 204.588 243.618 203.746 243.396 202.572C243.349 202.308 243.343 202.038 243.279 201.778C243.156 201.401 242.978 201.044 242.749 200.72L241.527 198.716C240.523 197.092 240.669 194.875 239.857 193.149C239.641 192.691 239.411 192.251 239.198 191.783C238.787 190.896 238.434 189.983 238.14 189.052C236.274 191.806 234.621 194.7 233.195 197.706C232.783 198.527 232.413 199.368 232.086 200.226C231.726 201.209 231.487 202.227 231.22 203.24C230.411 206.371 229.422 209.453 228.46 212.527C228.226 213.27 227.978 214.026 227.465 214.625C227.135 214.996 226.698 215.301 226.531 215.772C226.451 216.124 226.414 216.484 226.423 216.844C226.326 217.86 225.622 218.696 225.038 219.541C224.703 219.994 224.445 220.501 224.277 221.039C224.208 221.28 224.088 221.503 223.925 221.694C223.763 221.885 223.561 222.039 223.334 222.145C223.106 222.252 222.859 222.308 222.609 222.312C222.357 222.314 222.109 222.263 221.879 222.162H221.855C221.618 222.043 221.389 221.907 221.172 221.754C220.605 221.399 220.066 220.998 219.563 220.556C219.117 220.126 218.715 219.652 218.364 219.142C218.303 219.055 218.264 218.955 218.249 218.851C218.234 218.746 218.243 218.639 218.276 218.539C218.309 218.438 218.365 218.347 218.44 218.272C218.515 218.197 218.605 218.14 218.705 218.106C218.643 217.273 218.624 216.323 219.224 215.748C219.503 215.478 219.88 215.334 220.168 215.076C220.543 214.672 220.803 214.177 220.923 213.639C221.946 210.419 222.967 207.2 223.986 203.98C224.157 203.36 224.399 202.763 224.709 202.2C224.921 201.847 225.188 201.526 225.37 201.155C225.835 200.202 225.671 199.082 225.784 198.027C225.979 196.166 227.022 194.507 227.654 192.751C228.032 191.76 228.475 190.794 228.978 189.86C229.317 189.086 229.498 188.252 229.509 187.407C229.62 185.564 230.042 183.754 230.756 182.052C231.193 181.01 231.742 180.013 232.069 178.931C232.455 177.661 232.524 176.312 232.872 175.036C233.205 173.936 233.639 172.869 234.169 171.849C234.604 170.95 235.05 170.03 235.766 169.332C236.941 168.188 238.671 167.813 240.309 167.762C241.949 167.711 243.765 167.954 245.398 167.783Z" fill="#3F3D56"/>
<path d="M235.339 144.451C237.448 143.205 239.535 141.918 241.599 140.593C241.105 139.927 240.831 139.123 240.816 138.295C240.816 138.262 240.816 138.228 240.816 138.196C240.787 137.39 241.092 136.697 240.077 136.803C239.1 136.928 238.136 137.128 237.191 137.402C236.921 137.47 234.583 138.33 234.494 138.243C235.014 138.862 235.399 139.582 235.623 140.358C235.738 140.737 235.831 141.122 235.902 141.512C236.106 142.543 236.115 143.753 235.339 144.451Z" fill="#A0616A"/>
<path d="M232.505 158.271C232.775 160.392 233.234 162.516 233.231 164.65C233.227 166.782 232.799 168.955 233.665 170.866C233.809 171.19 234.085 171.441 234.115 171.795C235.314 172.001 236.482 171.441 237.624 171.037C238.671 170.67 239.758 170.427 240.861 170.312C241.759 170.222 242.683 170.216 243.576 170.045C244.466 169.906 245.288 169.486 245.922 168.847C246.471 168.247 246.465 167.349 246.848 166.645C247.043 166.282 247.337 165.986 247.543 165.629C247.93 164.867 248.03 163.992 247.825 163.164C247.617 162.344 247.369 161.537 247.079 160.743C246.399 158.536 246.347 156.183 246.929 153.948C247.181 152.992 247.547 152.054 247.607 151.069C247.624 150.41 247.561 149.752 247.418 149.11C246.932 146.629 245.982 144.11 244.058 142.471C243.03 141.593 241.64 140.805 241.532 139.475C241.088 139.301 240.612 139.598 240.231 139.879L235.958 143.028C235.704 143.178 235.497 143.394 235.358 143.654C235.092 144.292 235.706 144.993 235.607 145.683C235.535 146.183 235.11 146.545 234.846 146.977C234.217 148.004 234.42 149.571 233.392 150.203C233.299 150.395 233.212 150.593 233.135 150.803C232.768 151.85 232.521 152.935 232.401 154.038C232.257 155.448 232.292 156.87 232.505 158.271Z" fill="#3F3D56"/>
<path opacity="0.1" d="M234.505 138.249C235.026 138.867 235.411 139.588 235.635 140.364C235.975 140.441 236.323 140.479 236.671 140.478C238.416 140.478 239.584 138.48 240.451 137.108C240.423 136.302 241.092 136.703 240.076 136.809C239.1 136.934 238.135 137.135 237.19 137.408C236.921 137.476 234.582 138.336 234.505 138.249Z" fill="black"/>
<path d="M236.671 140.068C239.38 140.068 241.574 137.873 241.574 135.167C241.574 132.46 239.38 130.266 236.671 130.266C233.964 130.266 231.769 132.46 231.769 135.167C231.769 137.873 233.964 140.068 236.671 140.068Z" fill="#A0616A"/>
<path d="M232.921 138.637L234.054 139.879C234.426 140.285 235.057 140.314 235.464 139.943L239.271 136.469C239.678 136.097 239.707 135.466 239.335 135.059L238.202 133.818C237.83 133.411 237.199 133.382 236.792 133.754L232.985 137.228C232.578 137.599 232.549 138.23 232.921 138.637Z" fill="#3F3D56"/>
<path opacity="0.1" d="M232.921 138.637L234.054 139.879C234.426 140.285 235.057 140.314 235.464 139.943L239.271 136.469C239.678 136.097 239.707 135.466 239.335 135.059L238.202 133.818C237.83 133.411 237.199 133.382 236.792 133.754L232.985 137.228C232.578 137.599 232.549 138.23 232.921 138.637Z" fill="black"/>
<path d="M236.978 136.494C237.203 136.494 237.386 136.312 237.386 136.087C237.386 135.862 237.203 135.679 236.978 135.679C236.752 135.679 236.57 135.862 236.57 136.087C236.57 136.312 236.752 136.494 236.978 136.494Z" fill="white"/>
<path opacity="0.1" d="M232.506 158.271C236.288 157.714 239.722 155.443 242.351 152.627C242.842 152.164 243.222 151.596 243.462 150.964C243.595 150.437 243.64 149.891 243.597 149.35L243.534 147.186C243.508 146.24 243.468 145.257 243.01 144.43C242.551 143.603 241.529 143.007 240.648 143.352C238.332 144.251 236.824 146.305 235.499 148.409C235.121 149.065 234.707 149.699 234.262 150.311C234.037 150.596 233.732 150.887 233.363 150.847C233.285 150.841 233.209 150.821 233.138 150.788C232.771 151.835 232.524 152.92 232.404 154.023C232.258 155.438 232.293 156.865 232.506 158.271Z" fill="black"/>
<path d="M232.167 145.64C232.355 144.831 232.703 144.067 233.192 143.394C234.657 141.102 236.306 138.864 237.088 136.254C235.946 136.461 235.766 138.426 234.609 138.513L234.699 137.096C234.699 136.856 234.699 136.566 234.505 136.44C234.31 136.314 233.962 136.479 233.833 136.716C233.704 136.953 233.677 137.24 233.558 137.482C233.437 137.726 233.156 137.941 232.907 137.833L232.805 137.363C232.698 137.34 232.588 137.342 232.482 137.369C232.376 137.396 232.277 137.447 232.194 137.517C232.11 137.588 232.044 137.676 232 137.776C231.956 137.876 231.935 137.985 231.939 138.094C231.857 137.868 231.814 137.63 231.81 137.389C231.297 137.294 230.926 137.86 230.744 138.348C230.364 139.448 230.069 140.574 229.863 141.719L229.392 143.999C229.227 144.787 229.065 145.575 228.957 146.369C228.675 148.476 228.787 150.617 229.287 152.684C229.915 152.336 230.524 151.955 231.112 151.543C231.564 151.159 232.071 150.724 232.242 150.14C232.664 148.666 231.918 147.124 232.167 145.64Z" fill="#A0616A"/>
<path d="M240.649 142.74C241.53 142.396 242.552 142.992 243.01 143.819C243.469 144.646 243.508 145.617 243.535 146.575L243.594 148.744C243.64 149.286 243.595 149.832 243.463 150.359C243.222 150.989 242.843 151.557 242.354 152.022C239.447 155.135 235.56 157.576 231.305 157.783C231.156 157.803 231.004 157.784 230.865 157.729C230.744 157.653 230.641 157.55 230.564 157.43C229.615 156.249 228.611 154.892 228.767 153.388C228.793 153.136 229.066 152.933 229.156 152.699C229.727 151.337 230.774 150.229 232.102 149.583L232.36 149.463C232.459 149.662 232.601 149.836 232.776 149.972C232.95 150.109 233.154 150.205 233.369 150.254C233.729 150.29 234.038 150.002 234.269 149.718C234.715 149.105 235.127 148.469 235.507 147.813C236.825 145.689 238.335 143.642 240.649 142.74Z" fill="#3F3D56"/>
<path d="M240.346 138.372C239.93 138.157 239.864 137.603 239.822 137.135C239.775 136.591 239.692 136.051 239.573 135.517C239.444 134.918 239.231 134.301 238.722 133.983C238.543 133.873 238.339 133.809 238.128 133.799C237.919 133.789 237.709 133.832 237.52 133.924C237.331 134.017 237.169 134.155 237.049 134.327C236.928 134.5 236.853 134.7 236.831 134.909C236.837 135.009 236.807 135.108 236.747 135.188C236.707 135.225 236.657 135.251 236.603 135.263C236.368 135.316 236.121 135.281 235.911 135.162C235.701 135.044 235.543 134.851 235.467 134.622C235.38 134.322 235.446 133.936 235.233 133.69C235.021 133.444 234.769 133.45 234.562 133.288C234.437 133.165 234.341 133.014 234.283 132.848C234.224 132.682 234.204 132.505 234.223 132.329C234.223 131.883 234.284 131.35 233.924 131.074C233.381 130.652 232.566 131.323 231.928 131.074C231.751 130.988 231.604 130.851 231.507 130.681C231.409 130.511 231.364 130.314 231.379 130.119C231.417 129.727 231.55 129.35 231.769 129.022C232.144 128.38 232.596 127.786 233.115 127.252C233.115 127.383 233.322 127.368 233.435 127.296L234.382 126.721C234.367 126.769 234.365 126.82 234.378 126.869C234.392 126.918 234.419 126.961 234.457 126.994C234.672 126.786 234.941 126.64 235.233 126.574C235.38 126.547 235.532 126.579 235.656 126.662C235.78 126.746 235.866 126.874 235.896 127.021L237.094 126.502C237.143 126.469 237.202 126.454 237.261 126.46C237.319 126.466 237.374 126.493 237.415 126.536C237.847 126.835 238.398 126.922 238.913 127.042C239.429 127.162 239.977 127.368 240.253 127.824C240.351 128.058 240.478 128.279 240.628 128.483C240.76 128.6 240.914 128.69 241.08 128.749C241.755 129.015 242.391 129.373 242.968 129.813C243.547 130.259 243.975 130.872 244.194 131.569C244.517 132.734 244.05 133.966 243.508 135.041C243.094 135.863 242.629 136.658 242.117 137.423C241.926 137.722 241.661 138.289 241.353 138.463C241.018 138.555 240.659 138.523 240.346 138.372Z" fill="#3F3D56"/>
<path opacity="0.1" d="M231.937 129.852C232.575 130.097 233.39 129.426 233.932 129.852C234.284 130.128 234.233 130.661 234.233 131.107C234.213 131.282 234.233 131.46 234.291 131.626C234.35 131.791 234.446 131.942 234.571 132.066C234.778 132.227 235.072 132.267 235.242 132.467C235.413 132.668 235.389 133.087 235.476 133.399C235.552 133.628 235.709 133.821 235.92 133.94C236.13 134.058 236.376 134.094 236.612 134.04C236.666 134.029 236.716 134.003 236.756 133.965C236.816 133.885 236.845 133.787 236.839 133.687C236.862 133.478 236.937 133.278 237.057 133.105C237.178 132.933 237.34 132.794 237.529 132.702C237.718 132.609 237.928 132.566 238.138 132.577C238.348 132.587 238.552 132.651 238.731 132.761C239.24 133.078 239.453 133.707 239.582 134.295C239.701 134.828 239.784 135.369 239.831 135.913C239.873 136.38 239.939 136.934 240.355 137.15C240.674 137.306 241.039 137.338 241.38 137.24C241.68 137.066 241.952 136.491 242.144 136.2C242.657 135.431 243.121 134.631 243.534 133.804C243.878 133.164 244.127 132.478 244.272 131.766C244.487 132.869 244.044 134.014 243.534 135.029C243.121 135.851 242.656 136.647 242.144 137.411C241.952 137.711 241.689 138.276 241.38 138.45C241.039 138.548 240.674 138.516 240.355 138.361C239.939 138.145 239.873 137.59 239.831 137.123C239.784 136.579 239.701 136.038 239.582 135.505C239.453 134.906 239.24 134.289 238.731 133.972C238.552 133.861 238.348 133.797 238.138 133.787C237.928 133.777 237.718 133.82 237.529 133.912C237.34 134.004 237.178 134.144 237.057 134.316C236.937 134.488 236.862 134.688 236.839 134.897C236.845 134.997 236.816 135.096 236.756 135.176C236.716 135.214 236.666 135.239 236.612 135.251C236.376 135.305 236.13 135.269 235.92 135.15C235.709 135.031 235.552 134.839 235.476 134.609C235.389 134.31 235.455 133.923 235.242 133.678C235.03 133.432 234.778 133.438 234.571 133.276C234.446 133.152 234.35 133.002 234.291 132.836C234.233 132.67 234.213 132.492 234.233 132.318C234.233 131.871 234.292 131.338 233.932 131.062C233.39 130.64 232.575 131.311 231.937 131.062C231.76 130.976 231.613 130.839 231.515 130.669C231.418 130.498 231.373 130.303 231.388 130.107C231.399 129.891 231.45 129.678 231.538 129.481C231.624 129.647 231.765 129.778 231.937 129.852Z" fill="black"/>
</g>
<defs>
<linearGradient id="paint0_linear" x1="232.994" y1="228.813" x2="232.994" y2="125.058" gradientUnits="userSpaceOnUse">
<stop stop-color="#808080" stop-opacity="0.25"/>
<stop offset="0.54" stop-color="#808080" stop-opacity="0.12"/>
<stop offset="1" stop-color="#808080" stop-opacity="0.1"/>
</linearGradient>
<clipPath id="clip0">
<rect width="344" height="230.859" fill="white"/>
</clipPath>
</defs>
</svg>
